<?xml version="1.0" encoding="UTF-8" standalone="no"?>
<!-- Created with Inkscape (http://www.inkscape.org/) -->

<svg
   xmlns:dc="http://purl.org/dc/elements/1.1/"
   xmlns:cc="http://creativecommons.org/ns#"
   xmlns:rdf="http://www.w3.org/1999/02/22-rdf-syntax-ns#"
   xmlns:svg="http://www.w3.org/2000/svg"
   xmlns="http://www.w3.org/2000/svg"
   xmlns:sodipodi="http://sodipodi.sourceforge.net/DTD/sodipodi-0.dtd"
   xmlns:inkscape="http://www.inkscape.org/namespaces/inkscape"
   width="445.03937"
   height="465.23621"
   id="svg3186"
   version="1.1"
   inkscape:version="0.48.5 r10040"
   sodipodi:docname="lokkit_logo_icon.svg"
   inkscape:export-filename="/home/kraeki/work/bachelor/lokkit_logo_icon.png"
   inkscape:export-xdpi="72.389999"
   inkscape:export-ydpi="72.389999">
  <defs
     id="defs3188" />
  <sodipodi:namedview
     id="base"
     pagecolor="#ffffff"
     bordercolor="#666666"
     borderopacity="1.0"
     inkscape:pageopacity="0.0"
     inkscape:pageshadow="2"
     inkscape:zoom="1.4"
     inkscape:cx="90.381295"
     inkscape:cy="219.18766"
     inkscape:document-units="px"
     inkscape:current-layer="layer1"
     showgrid="false"
     fit-margin-top="0.6"
     fit-margin-left="0.6"
     fit-margin-bottom="0.6"
     fit-margin-right="0.6"
     units="cm"
     inkscape:window-width="2552"
     inkscape:window-height="1529"
     inkscape:window-x="0"
     inkscape:window-y="30"
     inkscape:window-maximized="0" />
  <metadata
     id="metadata3191">
    <rdf:RDF>
      <cc:Work
         rdf:about="">
        <dc:format>image/svg+xml</dc:format>
        <dc:type
           rdf:resource="http://purl.org/dc/dcmitype/StillImage" />
        <dc:title></dc:title>
      </cc:Work>
    </rdf:RDF>
  </metadata>
  <g
     inkscape:label="Layer 1"
     inkscape:groupmode="layer"
     id="layer1"
     transform="translate(-41.569727,44.318092)">
    <g
       id="g3229"
       transform="translate(4.0894103,-3.3478854)">
      <path
         inkscape:export-ydpi="300"
         inkscape:export-xdpi="300"
         inkscape:export-filename="/home/kraeki/work/bachelor/logo_v1.0.png"
         style="color:#000000;fill:#999999;fill-opacity:1;fill-rule:nonzero;stroke:#000000;stroke-width:0.77240682;stroke-linecap:butt;stroke-linejoin:miter;stroke-miterlimit:4;stroke-opacity:1;stroke-dasharray:none;stroke-dashoffset:0;marker:none;visibility:visible;display:inline;overflow:visible;enable-background:accumulate"
         d="m 385.0775,125.41354 c 20.313,0 40.625,0 60.938,0 0,-20.3126 0,-40.625087 0,-60.937587 -20.313,0 -40.625,10e-5 -60.938,0 0,20.3125 0,40.625087 0,60.937587 z"
         id="path8989"
         inkscape:connector-curvature="0" />
      <path
         inkscape:export-ydpi="300"
         inkscape:export-xdpi="300"
         inkscape:export-filename="/home/kraeki/work/bachelor/logo_v1.0.png"
         style="color:#000000;fill:#999999;fill-opacity:1;fill-rule:nonzero;stroke:#000000;stroke-width:0.77240682;stroke-linecap:butt;stroke-linejoin:miter;stroke-miterlimit:4;stroke-opacity:1;stroke-dasharray:none;stroke-dashoffset:0;marker:none;visibility:visible;display:inline;overflow:visible;enable-background:accumulate"
         d="m 385.0775,56.475953 c 20.313,0 40.625,0 60.938,0 0,-20.3229 0,-40.6458 0,-60.9687002 -20.313,0 -40.625,0 -60.938,0 0,20.3229002 0,40.6458002 0,60.9687002 z"
         id="path8991"
         inkscape:connector-curvature="0" />
      <path
         inkscape:export-ydpi="300"
         inkscape:export-xdpi="300"
         inkscape:export-filename="/home/kraeki/work/bachelor/logo_v1.0.png"
         style="color:#000000;fill:#999999;fill-opacity:1;fill-rule:nonzero;stroke:#000000;stroke-width:0.77240682;stroke-linecap:butt;stroke-linejoin:miter;stroke-miterlimit:4;stroke-opacity:1;stroke-dasharray:none;stroke-dashoffset:0;marker:none;visibility:visible;display:inline;overflow:visible;enable-background:accumulate"
         d="m 316.1095,56.475953 c 20.323,0 40.646,1e-4 60.968,0 0,-20.3229 0,-40.6458 0,-60.9687002 -20.322,0 -40.645,0 -60.968,0 0,20.3229002 0,40.6458002 0,60.9687002 z"
         id="path8993"
         inkscape:connector-curvature="0" />
      <path
         inkscape:export-ydpi="300"
         inkscape:export-xdpi="300"
         inkscape:export-filename="/home/kraeki/work/bachelor/logo_v1.0.png"
         style="color:#000000;fill:#999999;fill-opacity:1;fill-rule:nonzero;stroke:#000000;stroke-width:0.77240682;stroke-linecap:butt;stroke-linejoin:miter;stroke-miterlimit:4;stroke-opacity:1;stroke-dasharray:none;stroke-dashoffset:0;marker:none;visibility:visible;display:inline;overflow:visible;enable-background:accumulate"
         d="m 247.1715,56.475953 c 20.313,0 40.625,0 60.938,0 0,-20.3229 0,-40.6458 0,-60.9687002 -20.313,0 -40.625,0 -60.938,0 0,20.3229002 0,40.6458002 0,60.9687002 z"
         id="path8995"
         inkscape:connector-curvature="0" />
      <path
         inkscape:export-ydpi="300"
         inkscape:export-xdpi="300"
         inkscape:export-filename="/home/kraeki/work/bachelor/logo_v1.0.png"
         style="color:#000000;fill:#999999;fill-opacity:1;fill-rule:nonzero;stroke:#000000;stroke-width:0.77240682;stroke-linecap:butt;stroke-linejoin:miter;stroke-miterlimit:4;stroke-opacity:1;stroke-dasharray:none;stroke-dashoffset:0;marker:none;visibility:visible;display:inline;overflow:visible;enable-background:accumulate"
         d="m 247.1715,125.41354 c 20.313,0 40.625,0 60.938,0 0,-20.3126 0,-40.625087 0,-60.937587 -20.313,0 -40.625,10e-5 -60.938,0 0,20.3125 0,40.625087 0,60.937587 z"
         id="path8997"
         inkscape:connector-curvature="0" />
      <path
         inkscape:export-ydpi="300"
         inkscape:export-xdpi="300"
         inkscape:export-filename="/home/kraeki/work/bachelor/logo_v1.0.png"
         style="color:#000000;fill:#999999;fill-opacity:1;fill-rule:nonzero;stroke:#000000;stroke-width:0.77240682;stroke-linecap:butt;stroke-linejoin:miter;stroke-miterlimit:4;stroke-opacity:1;stroke-dasharray:none;stroke-dashoffset:0;marker:none;visibility:visible;display:inline;overflow:visible;enable-background:accumulate"
         d="m 265.5155,146.16354 c 14.311,14.0699 28.331,28.43 42.562,42.5937 0,-18.4271 0,-36.8542 0,-55.2813 -18.427,0 -36.854,1e-4 -55.281,0 4.24,4.2292 8.479,8.4584 12.719,12.6876 z"
         id="path8999"
         inkscape:connector-curvature="0" />
      <path
         inkscape:export-ydpi="300"
         inkscape:export-xdpi="300"
         inkscape:export-filename="/home/kraeki/work/bachelor/logo_v1.0.png"
         style="color:#000000;fill:#999999;fill-opacity:1;fill-rule:nonzero;stroke:#000000;stroke-width:0.77240682;stroke-linecap:butt;stroke-linejoin:miter;stroke-miterlimit:4;stroke-opacity:1;stroke-dasharray:none;stroke-dashoffset:0;marker:none;visibility:visible;display:inline;overflow:visible;enable-background:accumulate"
         d="m 385.0775,194.38224 c 20.313,0 40.625,0 60.938,0 0,-20.3229 0,-40.6458 0,-60.9687 -20.313,-1e-4 -40.625,0 -60.938,0 0,20.3229 0,40.6458 0,60.9687 z"
         id="path9001"
         inkscape:connector-curvature="0" />
      <path
         inkscape:export-ydpi="300"
         inkscape:export-xdpi="300"
         inkscape:export-filename="/home/kraeki/work/bachelor/logo_v1.0.png"
         style="color:#000000;fill:#ffd42a;fill-opacity:1;fill-rule:nonzero;stroke:#000000;stroke-width:0.77240682;stroke-linecap:butt;stroke-linejoin:miter;stroke-miterlimit:4;stroke-opacity:1;stroke-dasharray:none;stroke-dashoffset:0;marker:none;visibility:visible;display:inline;overflow:visible;enable-background:accumulate"
         d="m 171.4845,344.66354 c 14.375,14.375 28.75,28.75 43.125,43.125 14.375,-14.375 28.75,-28.7501 43.125,-43.125 -14.375,-14.3855 -28.75,-28.7709 -43.125,-43.1563 -14.375,14.3854 -28.75,28.7708 -43.125,43.1563 z"
         id="path9003"
         inkscape:connector-curvature="0" />
      <path
         inkscape:export-ydpi="300"
         inkscape:export-xdpi="300"
         inkscape:export-filename="/home/kraeki/work/bachelor/logo_v1.0.png"
         style="color:#000000;fill:#ffd42a;fill-opacity:1;fill-rule:nonzero;stroke:#000000;stroke-width:0.77240682;stroke-linecap:butt;stroke-linejoin:miter;stroke-miterlimit:4;stroke-opacity:1;stroke-dasharray:none;stroke-dashoffset:0;marker:none;visibility:visible;display:inline;overflow:visible;enable-background:accumulate"
         d="m 122.7345,295.91354 c 14.364,14.3645 28.729,28.7291 43.093,43.0937 14.386,-14.375 28.771,-28.75 43.157,-43.125 -14.375,-14.3646 -28.75,-28.7292 -43.125,-43.0937 -14.375,14.375 -28.75,28.75 -43.125,43.125 z"
         id="path9005"
         inkscape:connector-curvature="0" />
      <path
         inkscape:export-ydpi="300"
         inkscape:export-xdpi="300"
         inkscape:export-filename="/home/kraeki/work/bachelor/logo_v1.0.png"
         style="color:#000000;fill:#ffd42a;fill-opacity:1;fill-rule:nonzero;stroke:#000000;stroke-width:0.77240682;stroke-linecap:butt;stroke-linejoin:miter;stroke-miterlimit:4;stroke-opacity:1;stroke-dasharray:none;stroke-dashoffset:0;marker:none;visibility:visible;display:inline;overflow:visible;enable-background:accumulate"
         d="m 220.2655,295.88224 c 14.375,14.375 28.75,28.75 43.125,43.125 14.365,-14.3646 28.729,-28.7292 43.094,-43.0937 -14.375,-14.375 -28.75,-28.7501 -43.125,-43.125 -14.365,14.3645 -28.729,28.7291 -43.094,43.0937 z"
         id="path9007"
         inkscape:connector-curvature="0" />
      <path
         inkscape:export-ydpi="300"
         inkscape:export-xdpi="300"
         inkscape:export-filename="/home/kraeki/work/bachelor/logo_v1.0.png"
         style="color:#000000;fill:#ffd42a;fill-opacity:1;fill-rule:nonzero;stroke:#000000;stroke-width:0.77240682;stroke-linecap:butt;stroke-linejoin:miter;stroke-miterlimit:4;stroke-opacity:1;stroke-dasharray:none;stroke-dashoffset:0;marker:none;visibility:visible;display:inline;overflow:visible;enable-background:accumulate"
         d="m 268.9845,247.13224 c 14.375,14.375 28.75,28.75 43.125,43.125 14.385,-14.375 28.771,-28.75 43.156,-43.125 -14.385,-14.375 -28.771,-28.75 -43.156,-43.125 -14.375,14.375 -28.75,28.75 -43.125,43.125 z"
         id="path9009"
         inkscape:connector-curvature="0" />
      <path
         inkscape:export-ydpi="300"
         inkscape:export-xdpi="300"
         inkscape:export-filename="/home/kraeki/work/bachelor/logo_v1.0.png"
         style="color:#000000;fill:#ffd42a;fill-opacity:1;fill-rule:nonzero;stroke:#000000;stroke-width:0.77240682;stroke-linecap:butt;stroke-linejoin:miter;stroke-miterlimit:4;stroke-opacity:1;stroke-dasharray:none;stroke-dashoffset:0;marker:none;visibility:visible;display:inline;overflow:visible;enable-background:accumulate"
         d="m 122.7345,198.38224 c 14.375,14.375 28.75,28.75 43.125,43.125 14.375,-14.375 28.75,-28.75 43.125,-43.125 -14.386,-14.375 -28.771,-28.75 -43.157,-43.125 -14.364,14.375 -28.729,28.75 -43.093,43.125 z"
         id="path9011"
         inkscape:connector-curvature="0" />
      <path
         inkscape:export-ydpi="300"
         inkscape:export-xdpi="300"
         inkscape:export-filename="/home/kraeki/work/bachelor/logo_v1.0.png"
         style="color:#000000;fill:#ffd42a;fill-opacity:1;fill-rule:nonzero;stroke:#000000;stroke-width:0.77240682;stroke-linecap:butt;stroke-linejoin:miter;stroke-miterlimit:4;stroke-opacity:1;stroke-dasharray:none;stroke-dashoffset:0;marker:none;visibility:visible;display:inline;overflow:visible;enable-background:accumulate"
         d="m 73.984501,247.13224 c 14.375,14.375 28.749999,28.75 43.124999,43.125 14.375,-14.375 28.75,-28.75 43.125,-43.125 -14.375,-14.375 -28.75,-28.75 -43.125,-43.125 -14.375,14.375 -28.749999,28.75 -43.124999,43.125 z"
         id="path9013"
         inkscape:connector-curvature="0" />
      <path
         inkscape:export-ydpi="300"
         inkscape:export-xdpi="300"
         inkscape:export-filename="/home/kraeki/work/bachelor/logo_v1.0.png"
         style="color:#000000;fill:#ffd42a;fill-opacity:1;fill-rule:nonzero;stroke:#000000;stroke-width:0.77240682;stroke-linecap:butt;stroke-linejoin:miter;stroke-miterlimit:4;stroke-opacity:1;stroke-dasharray:none;stroke-dashoffset:0;marker:none;visibility:visible;display:inline;overflow:visible;enable-background:accumulate"
         d="m 220.2655,198.38224 c 14.365,14.375 28.729,28.75 43.094,43.125 14.375,-14.375 28.75,-28.75 43.125,-43.125 -14.365,-14.375 -28.729,-28.75 -43.094,-43.125 -14.375,14.375 -28.75,28.75 -43.125,43.125 z"
         id="path9075"
         inkscape:connector-curvature="0" />
      <path
         inkscape:export-ydpi="300"
         inkscape:export-xdpi="300"
         inkscape:export-filename="/home/kraeki/work/bachelor/logo_v1.0.png"
         style="color:#000000;fill:#ffd42a;fill-opacity:1;fill-rule:nonzero;stroke:#000000;stroke-width:0.77240682;stroke-linecap:butt;stroke-linejoin:miter;stroke-miterlimit:4;stroke-opacity:1;stroke-dasharray:none;stroke-dashoffset:0;marker:none;visibility:visible;display:inline;overflow:visible;enable-background:accumulate"
         d="m 171.4845,149.63224 c 14.375,14.375 28.75,28.75 43.125,43.125 14.375,-14.375 28.75,-28.75 43.125,-43.125 -14.375,-14.375 -28.75,-28.75 -43.125,-43.125 -14.375,14.375 -28.75,28.75 -43.125,43.125 z"
         id="path9077"
         inkscape:connector-curvature="0" />
    </g>
  </g>
</svg>
