<?xml version="1.0" encoding="UTF-8" standalone="no"?>
<!-- Created with Inkscape (http://www.inkscape.org/) -->

<svg
   xmlns:dc="http://purl.org/dc/elements/1.1/"
   xmlns:cc="http://creativecommons.org/ns#"
   xmlns:rdf="http://www.w3.org/1999/02/22-rdf-syntax-ns#"
   xmlns:svg="http://www.w3.org/2000/svg"
   xmlns="http://www.w3.org/2000/svg"
   xmlns:sodipodi="http://sodipodi.sourceforge.net/DTD/sodipodi-0.dtd"
   xmlns:inkscape="http://www.inkscape.org/namespaces/inkscape"
   width="445.03937"
   height="465.23621"
   id="svg3186"
   version="1.1"
   inkscape:version="0.48.5 r10040"
   sodipodi:docname="lokkit_icon.svg"
   inkscape:export-filename="/home/kraeki/work/bachelor/lokkit_logo_icon.png"
   inkscape:export-xdpi="72.389999"
   inkscape:export-ydpi="72.389999">
  <defs
     id="defs3188" />
  <sodipodi:namedview
     id="base"
     pagecolor="#ffffff"
     bordercolor="#666666"
     borderopacity="1.0"
     inkscape:pageopacity="0.0"
     inkscape:pageshadow="2"
     inkscape:zoom="0.49497475"
     inkscape:cx="218.96841"
     inkscape:cy="101.5222"
     inkscape:document-units="px"
     inkscape:current-layer="layer1"
     showgrid="false"
     fit-margin-top="0.6"
     fit-margin-left="0.6"
     fit-margin-bottom="0.6"
     fit-margin-right="0.6"
     units="cm"
     inkscape:window-width="2552"
     inkscape:window-height="1529"
     inkscape:window-x="0"
     inkscape:window-y="30"
     inkscape:window-maximized="0" />
  <metadata
     id="metadata3191">
    <rdf:RDF>
      <cc:Work
         rdf:about="">
        <dc:format>image/svg+xml</dc:format>
        <dc:type
           rdf:resource="http://purl.org/dc/dcmitype/StillImage" />
        <dc:title />
      </cc:Work>
    </rdf:RDF>
  </metadata>
  <g
     inkscape:label="Layer 1"
     inkscape:groupmode="layer"
     id="layer1"
     transform="translate(-41.569727,44.318092)">
    <path
       inkscape:connector-curvature="0"
       id="path8989"
       d="m 389.16691,122.06565 c 20.313,0 40.625,0 60.938,0 0,-20.3126 0,-40.625082 0,-60.937582 -20.313,0 -40.625,1e-4 -60.938,0 0,20.3125 0,40.625082 0,60.937582 z"
       style="color:#000000;fill:#7f8282;fill-opacity:1;fill-rule:nonzero;stroke:#000000;stroke-width:0.77240682000000005;stroke-linecap:butt;stroke-linejoin:miter;stroke-miterlimit:4;stroke-opacity:1;stroke-dasharray:none;stroke-dashoffset:0;marker:none;visibility:visible;display:inline;overflow:visible;enable-background:accumulate"
       inkscape:export-filename="/home/kraeki/work/bachelor/logo_v1.0.png"
       inkscape:export-xdpi="300"
       inkscape:export-ydpi="300" />
    <path
       inkscape:connector-curvature="0"
       id="path8991"
       d="m 389.16691,53.128068 c 20.313,0 40.625,0 60.938,0 0,-20.3229 0,-40.6458 0,-60.9687006 -20.313,0 -40.625,0 -60.938,0 0,20.3229006 0,40.6458006 0,60.9687006 z"
       style="color:#000000;fill:#7f8282;fill-opacity:1;fill-rule:nonzero;stroke:#000000;stroke-width:0.77240682000000005;stroke-linecap:butt;stroke-linejoin:miter;stroke-miterlimit:4;stroke-opacity:1;stroke-dasharray:none;stroke-dashoffset:0;marker:none;visibility:visible;display:inline;overflow:visible;enable-background:accumulate"
       inkscape:export-filename="/home/kraeki/work/bachelor/logo_v1.0.png"
       inkscape:export-xdpi="300"
       inkscape:export-ydpi="300" />
    <path
       inkscape:connector-curvature="0"
       id="path8993"
       d="m 320.19891,53.128068 c 20.323,0 40.646,1e-4 60.968,0 0,-20.3229 0,-40.6458 0,-60.9687006 -20.322,0 -40.645,0 -60.968,0 0,20.3229006 0,40.6458006 0,60.9687006 z"
       style="color:#000000;fill:#7f8282;fill-opacity:1;fill-rule:nonzero;stroke:#000000;stroke-width:0.77240682000000005;stroke-linecap:butt;stroke-linejoin:miter;stroke-miterlimit:4;stroke-opacity:1;stroke-dasharray:none;stroke-dashoffset:0;marker:none;visibility:visible;display:inline;overflow:visible;enable-background:accumulate"
       inkscape:export-filename="/home/kraeki/work/bachelor/logo_v1.0.png"
       inkscape:export-xdpi="300"
       inkscape:export-ydpi="300" />
    <path
       inkscape:connector-curvature="0"
       id="path8995"
       d="m 251.26091,53.128068 c 20.313,0 40.625,0 60.938,0 0,-20.3229 0,-40.6458 0,-60.9687006 -20.313,0 -40.625,0 -60.938,0 0,20.3229006 0,40.6458006 0,60.9687006 z"
       style="color:#000000;fill:#7f8282;fill-opacity:1;fill-rule:nonzero;stroke:#000000;stroke-width:0.77240682000000005;stroke-linecap:butt;stroke-linejoin:miter;stroke-miterlimit:4;stroke-opacity:1;stroke-dasharray:none;stroke-dashoffset:0;marker:none;visibility:visible;display:inline;overflow:visible;enable-background:accumulate"
       inkscape:export-filename="/home/kraeki/work/bachelor/logo_v1.0.png"
       inkscape:export-xdpi="300"
       inkscape:export-ydpi="300" />
    <path
       inkscape:connector-curvature="0"
       id="path8997"
       d="m 251.26091,122.06565 c 20.313,0 40.625,0 60.938,0 0,-20.3126 0,-40.625082 0,-60.937582 -20.313,0 -40.625,1e-4 -60.938,0 0,20.3125 0,40.625082 0,60.937582 z"
       style="color:#000000;fill:#7f8282;fill-opacity:1;fill-rule:nonzero;stroke:#000000;stroke-width:0.77240682000000005;stroke-linecap:butt;stroke-linejoin:miter;stroke-miterlimit:4;stroke-opacity:1;stroke-dasharray:none;stroke-dashoffset:0;marker:none;visibility:visible;display:inline;overflow:visible;enable-background:accumulate"
       inkscape:export-filename="/home/kraeki/work/bachelor/logo_v1.0.png"
       inkscape:export-xdpi="300"
       inkscape:export-ydpi="300" />
    <path
       inkscape:connector-curvature="0"
       id="path8999"
       d="m 269.60491,142.81565 c 14.311,14.0699 28.331,28.43 42.562,42.5937 0,-18.4271 0,-36.8542 0,-55.2813 -18.427,0 -36.854,1e-4 -55.281,0 4.24,4.2292 8.479,8.4584 12.719,12.6876 z"
       style="color:#000000;fill:#7f8282;fill-opacity:1;fill-rule:nonzero;stroke:#000000;stroke-width:0.77240682000000005;stroke-linecap:butt;stroke-linejoin:miter;stroke-miterlimit:4;stroke-opacity:1;stroke-dasharray:none;stroke-dashoffset:0;marker:none;visibility:visible;display:inline;overflow:visible;enable-background:accumulate"
       inkscape:export-filename="/home/kraeki/work/bachelor/logo_v1.0.png"
       inkscape:export-xdpi="300"
       inkscape:export-ydpi="300" />
    <path
       inkscape:connector-curvature="0"
       id="path9001"
       d="m 389.16691,191.03435 c 20.313,0 40.625,0 60.938,0 0,-20.3229 0,-40.6458 0,-60.9687 -20.313,-1e-4 -40.625,0 -60.938,0 0,20.3229 0,40.6458 0,60.9687 z"
       style="color:#000000;fill:#7f8282;fill-opacity:1;fill-rule:nonzero;stroke:#000000;stroke-width:0.77240682000000005;stroke-linecap:butt;stroke-linejoin:miter;stroke-miterlimit:4;stroke-opacity:1;stroke-dasharray:none;stroke-dashoffset:0;marker:none;visibility:visible;display:inline;overflow:visible;enable-background:accumulate"
       inkscape:export-filename="/home/kraeki/work/bachelor/logo_v1.0.png"
       inkscape:export-xdpi="300"
       inkscape:export-ydpi="300" />
    <path
       inkscape:connector-curvature="0"
       id="path9003"
       d="m 175.57391,341.31565 c 14.375,14.375 28.75,28.75 43.125,43.125 14.375,-14.375 28.75,-28.7501 43.125,-43.125 -14.375,-14.3855 -28.75,-28.7709 -43.125,-43.1563 -14.375,14.3854 -28.75,28.7708 -43.125,43.1563 z"
       style="color:#000000;fill:#f9bf02;fill-opacity:1;fill-rule:nonzero;stroke:#000000;stroke-width:0.77240682000000005;stroke-linecap:butt;stroke-linejoin:miter;stroke-miterlimit:4;stroke-opacity:1;stroke-dasharray:none;stroke-dashoffset:0;marker:none;visibility:visible;display:inline;overflow:visible;enable-background:accumulate"
       inkscape:export-filename="/home/kraeki/work/bachelor/logo_v1.0.png"
       inkscape:export-xdpi="300"
       inkscape:export-ydpi="300" />
    <path
       inkscape:connector-curvature="0"
       id="path9005"
       d="m 126.82391,292.56565 c 14.364,14.3645 28.729,28.7291 43.093,43.0937 14.386,-14.375 28.771,-28.75 43.157,-43.125 -14.375,-14.3646 -28.75,-28.7292 -43.125,-43.0937 -14.375,14.375 -28.75,28.75 -43.125,43.125 z"
       style="color:#000000;fill:#f9bf02;fill-opacity:1;fill-rule:nonzero;stroke:#000000;stroke-width:0.77240682000000005;stroke-linecap:butt;stroke-linejoin:miter;stroke-miterlimit:4;stroke-opacity:1;stroke-dasharray:none;stroke-dashoffset:0;marker:none;visibility:visible;display:inline;overflow:visible;enable-background:accumulate"
       inkscape:export-filename="/home/kraeki/work/bachelor/logo_v1.0.png"
       inkscape:export-xdpi="300"
       inkscape:export-ydpi="300" />
    <path
       inkscape:connector-curvature="0"
       id="path9007"
       d="m 224.35491,292.53435 c 14.375,14.375 28.75,28.75 43.125,43.125 14.365,-14.3646 28.729,-28.7292 43.094,-43.0937 -14.375,-14.375 -28.75,-28.7501 -43.125,-43.125 -14.365,14.3645 -28.729,28.7291 -43.094,43.0937 z"
       style="color:#000000;fill:#f9bf02;fill-opacity:1;fill-rule:nonzero;stroke:#000000;stroke-width:0.77240682000000005;stroke-linecap:butt;stroke-linejoin:miter;stroke-miterlimit:4;stroke-opacity:1;stroke-dasharray:none;stroke-dashoffset:0;marker:none;visibility:visible;display:inline;overflow:visible;enable-background:accumulate"
       inkscape:export-filename="/home/kraeki/work/bachelor/logo_v1.0.png"
       inkscape:export-xdpi="300"
       inkscape:export-ydpi="300" />
    <path
       inkscape:connector-curvature="0"
       id="path9009"
       d="m 273.07391,243.78435 c 14.375,14.375 28.75,28.75 43.125,43.125 14.385,-14.375 28.771,-28.75 43.156,-43.125 -14.385,-14.375 -28.771,-28.75 -43.156,-43.125 -14.375,14.375 -28.75,28.75 -43.125,43.125 z"
       style="color:#000000;fill:#f9bf02;fill-opacity:1;fill-rule:nonzero;stroke:#000000;stroke-width:0.77240682000000005;stroke-linecap:butt;stroke-linejoin:miter;stroke-miterlimit:4;stroke-opacity:1;stroke-dasharray:none;stroke-dashoffset:0;marker:none;visibility:visible;display:inline;overflow:visible;enable-background:accumulate"
       inkscape:export-filename="/home/kraeki/work/bachelor/logo_v1.0.png"
       inkscape:export-xdpi="300"
       inkscape:export-ydpi="300" />
    <path
       inkscape:connector-curvature="0"
       id="path9011"
       d="m 126.82391,195.03435 c 14.375,14.375 28.75,28.75 43.125,43.125 14.375,-14.375 28.75,-28.75 43.125,-43.125 -14.386,-14.375 -28.771,-28.75 -43.157,-43.125 -14.364,14.375 -28.729,28.75 -43.093,43.125 z"
       style="color:#000000;fill:#f9bf02;fill-opacity:1;fill-rule:nonzero;stroke:#000000;stroke-width:0.77240682000000005;stroke-linecap:butt;stroke-linejoin:miter;stroke-miterlimit:4;stroke-opacity:1;stroke-dasharray:none;stroke-dashoffset:0;marker:none;visibility:visible;display:inline;overflow:visible;enable-background:accumulate"
       inkscape:export-filename="/home/kraeki/work/bachelor/logo_v1.0.png"
       inkscape:export-xdpi="300"
       inkscape:export-ydpi="300" />
    <path
       inkscape:connector-curvature="0"
       id="path9013"
       d="m 78.073911,243.78435 c 14.375,14.375 28.749999,28.75 43.124999,43.125 14.375,-14.375 28.75,-28.75 43.125,-43.125 -14.375,-14.375 -28.75,-28.75 -43.125,-43.125 -14.375,14.375 -28.749999,28.75 -43.124999,43.125 z"
       style="color:#000000;fill:#f9bf02;fill-opacity:1;fill-rule:nonzero;stroke:#000000;stroke-width:0.77240682000000005;stroke-linecap:butt;stroke-linejoin:miter;stroke-miterlimit:4;stroke-opacity:1;stroke-dasharray:none;stroke-dashoffset:0;marker:none;visibility:visible;display:inline;overflow:visible;enable-background:accumulate"
       inkscape:export-filename="/home/kraeki/work/bachelor/logo_v1.0.png"
       inkscape:export-xdpi="300"
       inkscape:export-ydpi="300" />
    <path
       inkscape:connector-curvature="0"
       id="path9075"
       d="m 224.35491,195.03435 c 14.365,14.375 28.729,28.75 43.094,43.125 14.375,-14.375 28.75,-28.75 43.125,-43.125 -14.365,-14.375 -28.729,-28.75 -43.094,-43.125 -14.375,14.375 -28.75,28.75 -43.125,43.125 z"
       style="color:#000000;fill:#f9bf02;fill-opacity:1;fill-rule:nonzero;stroke:#000000;stroke-width:0.77240682000000005;stroke-linecap:butt;stroke-linejoin:miter;stroke-miterlimit:4;stroke-opacity:1;stroke-dasharray:none;stroke-dashoffset:0;marker:none;visibility:visible;display:inline;overflow:visible;enable-background:accumulate"
       inkscape:export-filename="/home/kraeki/work/bachelor/logo_v1.0.png"
       inkscape:export-xdpi="300"
       inkscape:export-ydpi="300" />
    <path
       inkscape:connector-curvature="0"
       id="path9077"
       d="m 175.57391,146.28435 c 14.375,14.375 28.75,28.75 43.125,43.125 14.375,-14.375 28.75,-28.75 43.125,-43.125 -14.375,-14.375 -28.75,-28.75 -43.125,-43.125 -14.375,14.375 -28.75,28.75 -43.125,43.125 z"
       style="color:#000000;fill:#f9bf02;fill-opacity:1;fill-rule:nonzero;stroke:#000000;stroke-width:0.77240682000000005;stroke-linecap:butt;stroke-linejoin:miter;stroke-miterlimit:4;stroke-opacity:1;stroke-dasharray:none;stroke-dashoffset:0;marker:none;visibility:visible;display:inline;overflow:visible;enable-background:accumulate"
       inkscape:export-filename="/home/kraeki/work/bachelor/logo_v1.0.png"
       inkscape:export-xdpi="300"
       inkscape:export-ydpi="300" />
  </g>
</svg>
