<?xml version="1.0" encoding="UTF-8" standalone="no"?>
<!-- Created with Inkscape (http://www.inkscape.org/) -->

<svg
   xmlns:dc="http://purl.org/dc/elements/1.1/"
   xmlns:cc="http://creativecommons.org/ns#"
   xmlns:rdf="http://www.w3.org/1999/02/22-rdf-syntax-ns#"
   xmlns:svg="http://www.w3.org/2000/svg"
   xmlns="http://www.w3.org/2000/svg"
   xmlns:sodipodi="http://sodipodi.sourceforge.net/DTD/sodipodi-0.dtd"
   xmlns:inkscape="http://www.inkscape.org/namespaces/inkscape"
   width="1973.42"
   height="714.02002"
   viewBox="0 0 1973.4201 714.02002"
   id="svg2"
   version="1.1"
   inkscape:version="0.48.5 r10040"
   sodipodi:docname="lokkit_logo.svg">
  <defs
     id="defs4">
    <inkscape:perspective
       sodipodi:type="inkscape:persp3d"
       inkscape:vp_x="-24.16528 : 65.05473 : 0"
       inkscape:vp_y="0 : 999.99997 : 0"
       inkscape:vp_z="242.27689 : 85.12472 : 0"
       inkscape:persp3d-origin="126.55348 : -201.37738 : 1"
       id="perspective4036" />
  </defs>
  <sodipodi:namedview
     id="base"
     pagecolor="#ffffff"
     bordercolor="#666666"
     borderopacity="1.0"
     inkscape:pageopacity="0.0"
     inkscape:pageshadow="2"
     inkscape:zoom="0.45254834"
     inkscape:cx="255.7925"
     inkscape:cy="517.13569"
     inkscape:document-units="px"
     inkscape:current-layer="layer1"
     showgrid="false"
     fit-margin-top="0.2"
     fit-margin-left="0.2"
     fit-margin-right="0.2"
     fit-margin-bottom="0.2"
     inkscape:snap-bbox="false"
     inkscape:bbox-nodes="false"
     inkscape:bbox-paths="false"
     inkscape:object-nodes="true"
     inkscape:snap-others="false"
     inkscape:snap-nodes="true"
     inkscape:snap-global="true"
     inkscape:window-width="2560"
     inkscape:window-height="1600"
     inkscape:window-x="0"
     inkscape:window-y="0"
     inkscape:window-maximized="0"
     showguides="true"
     inkscape:guide-bbox="true"
     inkscape:snap-bbox-edge-midpoints="true" />
  <metadata
     id="metadata7">
    <rdf:RDF>
      <cc:Work
         rdf:about="">
        <dc:format>image/svg+xml</dc:format>
        <dc:type
           rdf:resource="http://purl.org/dc/dcmitype/StillImage" />
        <dc:title />
      </cc:Work>
    </rdf:RDF>
  </metadata>
  <g
     inkscape:label="Layer 1"
     inkscape:groupmode="layer"
     id="layer1"
     transform="translate(20584.733,-3774.1211)">
    <g
       id="g3046"
       transform="translate(-4.09445,-7.16294)">
      <path
         inkscape:export-ydpi="300"
         inkscape:export-xdpi="300"
         inkscape:export-filename="/home/kraeki/work/bachelor/logo_v1.0.png"
         style="color:#000000;fill:#ffd42a;fill-opacity:1;fill-rule:nonzero;stroke:#000000;stroke-width:0.77240682;stroke-linecap:butt;stroke-linejoin:miter;stroke-miterlimit:4;stroke-opacity:1;stroke-dasharray:none;stroke-dashoffset:0;marker:none;visibility:visible;display:inline;overflow:visible;enable-background:accumulate"
         d="m -19638.682,4147.0285 c 14.375,14.375 28.75,28.75 43.125,43.125 14.375,-14.375 28.75,-28.7501 43.125,-43.125 -14.375,-14.3751 -28.75,-28.75 -43.125,-43.125 -14.375,14.375 -28.75,28.75 -43.125,43.125 z"
         id="path8969"
         inkscape:connector-curvature="0" />
      <path
         inkscape:export-ydpi="300"
         inkscape:export-xdpi="300"
         inkscape:export-filename="/home/kraeki/work/bachelor/logo_v1.0.png"
         style="color:#000000;fill:#ffd42a;fill-opacity:1;fill-rule:nonzero;stroke:#000000;stroke-width:0.77240682;stroke-linecap:butt;stroke-linejoin:miter;stroke-miterlimit:4;stroke-opacity:1;stroke-dasharray:none;stroke-dashoffset:0;marker:none;visibility:visible;display:inline;overflow:visible;enable-background:accumulate"
         d="m -19687.432,4098.2785 c 14.375,14.3645 28.75,28.7291 43.125,43.0937 14.375,-14.375 28.75,-28.75 43.125,-43.125 -14.375,-14.3646 -28.75,-28.7292 -43.125,-43.0937 -14.375,14.375 -28.75,28.7499 -43.125,43.125 z"
         id="path8971"
         inkscape:connector-curvature="0" />
      <path
         inkscape:export-ydpi="300"
         inkscape:export-xdpi="300"
         inkscape:export-filename="/home/kraeki/work/bachelor/logo_v1.0.png"
         style="color:#000000;fill:#ffd42a;fill-opacity:1;fill-rule:nonzero;stroke:#000000;stroke-width:0.77240682;stroke-linecap:butt;stroke-linejoin:miter;stroke-miterlimit:4;stroke-opacity:1;stroke-dasharray:none;stroke-dashoffset:0;marker:none;visibility:visible;display:inline;overflow:visible;enable-background:accumulate"
         d="m -19589.901,4098.2472 c 14.375,14.375 28.75,28.75 43.125,43.125 14.365,-14.3646 28.729,-28.7292 43.094,-43.0937 -14.375,-14.375 -28.75,-28.7501 -43.125,-43.125 -14.365,14.3645 -28.729,28.7291 -43.094,43.0937 z"
         id="path8973"
         inkscape:connector-curvature="0" />
      <path
         inkscape:export-ydpi="300"
         inkscape:export-xdpi="300"
         inkscape:export-filename="/home/kraeki/work/bachelor/logo_v1.0.png"
         style="color:#000000;fill:#ffd42a;fill-opacity:1;fill-rule:nonzero;stroke:#000000;stroke-width:0.77240682;stroke-linecap:butt;stroke-linejoin:miter;stroke-miterlimit:4;stroke-opacity:1;stroke-dasharray:none;stroke-dashoffset:0;marker:none;visibility:visible;display:inline;overflow:visible;enable-background:accumulate"
         d="m -19541.151,4049.4972 c 14.375,14.375 28.75,28.75 43.125,43.125 14.375,-14.375 28.75,-28.75 43.125,-43.125 -14.375,-14.375 -28.75,-28.75 -43.125,-43.125 -14.375,14.375 -28.75,28.75 -43.125,43.125 z"
         id="path8975"
         inkscape:connector-curvature="0" />
      <path
         inkscape:export-ydpi="300"
         inkscape:export-xdpi="300"
         inkscape:export-filename="/home/kraeki/work/bachelor/logo_v1.0.png"
         style="color:#000000;fill:#ffd42a;fill-opacity:1;fill-rule:nonzero;stroke:#000000;stroke-width:0.77240682;stroke-linecap:butt;stroke-linejoin:miter;stroke-miterlimit:4;stroke-opacity:1;stroke-dasharray:none;stroke-dashoffset:0;marker:none;visibility:visible;display:inline;overflow:visible;enable-background:accumulate"
         d="m -19589.901,4000.7472 c 14.365,14.375 28.729,28.75 43.094,43.125 14.375,-14.375 28.75,-28.75 43.125,-43.125 -14.365,-14.375 -28.729,-28.75 -43.094,-43.125 -14.375,14.375 -28.75,28.75 -43.125,43.125 z"
         id="path8977"
         inkscape:connector-curvature="0" />
      <path
         inkscape:export-ydpi="300"
         inkscape:export-xdpi="300"
         inkscape:export-filename="/home/kraeki/work/bachelor/logo_v1.0.png"
         style="color:#000000;fill:#ffd42a;fill-opacity:1;fill-rule:nonzero;stroke:#000000;stroke-width:0.77240682;stroke-linecap:butt;stroke-linejoin:miter;stroke-miterlimit:4;stroke-opacity:1;stroke-dasharray:none;stroke-dashoffset:0;marker:none;visibility:visible;display:inline;overflow:visible;enable-background:accumulate"
         d="m -19638.682,3951.9972 c 14.375,14.375 28.75,28.75 43.125,43.125 14.375,-14.375 28.75,-28.75 43.125,-43.125 -14.375,-14.375 -28.75,-28.75 -43.125,-43.125 -14.375,14.375 -28.75,28.75 -43.125,43.125 z"
         id="path8979"
         inkscape:connector-curvature="0" />
      <path
         inkscape:export-ydpi="300"
         inkscape:export-xdpi="300"
         inkscape:export-filename="/home/kraeki/work/bachelor/logo_v1.0.png"
         style="color:#000000;fill:#ffd42a;fill-opacity:1;fill-rule:nonzero;stroke:#000000;stroke-width:0.77240682;stroke-linecap:butt;stroke-linejoin:miter;stroke-miterlimit:4;stroke-opacity:1;stroke-dasharray:none;stroke-dashoffset:0;marker:none;visibility:visible;display:inline;overflow:visible;enable-background:accumulate"
         d="m -19687.432,4000.7472 c 14.375,14.375 28.75,28.75 43.125,43.125 14.375,-14.375 28.75,-28.75 43.125,-43.125 -14.375,-14.375 -28.75,-28.75 -43.125,-43.125 -14.375,14.375 -28.75,28.75 -43.125,43.125 z"
         id="path8981"
         inkscape:connector-curvature="0" />
      <path
         inkscape:export-ydpi="300"
         inkscape:export-xdpi="300"
         inkscape:export-filename="/home/kraeki/work/bachelor/logo_v1.0.png"
         style="color:#000000;fill:#ffd42a;fill-opacity:1;fill-rule:nonzero;stroke:#000000;stroke-width:0.77240682;stroke-linecap:butt;stroke-linejoin:miter;stroke-miterlimit:4;stroke-opacity:1;stroke-dasharray:none;stroke-dashoffset:0;marker:none;visibility:visible;display:inline;overflow:visible;enable-background:accumulate"
         d="m -19736.182,4049.4972 c 14.375,14.375 28.75,28.75 43.125,43.125 14.375,-14.375 28.75,-28.75 43.125,-43.125 -14.375,-14.375 -28.75,-28.75 -43.125,-43.125 -14.375,14.375 -28.75,28.75 -43.125,43.125 z"
         id="path8983"
         inkscape:connector-curvature="0" />
      <path
         inkscape:export-ydpi="300"
         inkscape:export-xdpi="300"
         inkscape:export-filename="/home/kraeki/work/bachelor/logo_v1.0.png"
         style="color:#000000;fill:#ffdd55;fill-opacity:1;fill-rule:nonzero;stroke:#000000;stroke-width:0.77240682;stroke-linecap:butt;stroke-linejoin:miter;stroke-miterlimit:4;stroke-opacity:1;stroke-dashoffset:0;marker:none;visibility:visible;display:inline;overflow:visible;enable-background:accumulate"
         d="m -19591.526,4197.4035 c 0,93.7708 0,187.5416 0,281.3124 13.584,-13.5937 27.167,-27.1874 40.75,-40.7812 0,-93.7604 0,-187.5208 0,-281.2812 -13.583,13.5833 -27.166,27.1666 -40.75,40.75 z"
         id="path8985"
         inkscape:connector-curvature="0" />
      <path
         inkscape:export-ydpi="300"
         inkscape:export-xdpi="300"
         inkscape:export-filename="/home/kraeki/work/bachelor/logo_v1.0.png"
         style="color:#000000;fill:#d4aa00;fill-opacity:1;fill-rule:nonzero;stroke:#000000;stroke-width:0.77240682;stroke-linecap:butt;stroke-linejoin:miter;stroke-miterlimit:4;stroke-opacity:1;stroke-dashoffset:0;marker:none;visibility:visible;display:inline;overflow:visible;enable-background:accumulate"
         d="m -19640.307,4242.9347 c 13.594,13.5729 27.187,27.1458 40.781,40.7188 0,-28.75 0,-57.5001 0,-86.25 -13.594,-13.5834 -27.187,-27.1667 -40.781,-40.75 0,28.7604 0,57.5208 0,86.2812 z m 1.625,99.0938 c 13.052,13.052 26.104,26.1041 39.156,39.1562 0,-26.0938 0,-52.1875 0,-78.2812 -13.052,13.0416 -26.104,26.0833 -39.156,39.125 z m 0,97.5312 c 13.052,13.0521 26.104,26.1042 39.156,39.1562 0,-26.0937 0,-52.1874 0,-78.2812 -13.052,13.0417 -26.104,26.0833 -39.156,39.125 z"
         id="path8987"
         inkscape:connector-curvature="0" />
      <path
         inkscape:export-ydpi="300"
         inkscape:export-xdpi="300"
         inkscape:export-filename="/home/kraeki/work/bachelor/logo_v1.0.png"
         style="color:#000000;fill:#999999;fill-opacity:1;fill-rule:nonzero;stroke:#000000;stroke-width:0.77240682;stroke-linecap:butt;stroke-linejoin:miter;stroke-miterlimit:4;stroke-opacity:1;stroke-dasharray:none;stroke-dashoffset:0;marker:none;visibility:visible;display:inline;overflow:visible;enable-background:accumulate"
         d="m -20250.957,3927.7785 c 20.313,0 40.625,0 60.938,0 0,-20.3126 0,-40.6251 0,-60.9376 -20.313,0 -40.625,10e-5 -60.938,0 0,20.3125 0,40.6251 0,60.9376 z"
         id="path8989"
         inkscape:connector-curvature="0" />
      <path
         inkscape:export-ydpi="300"
         inkscape:export-xdpi="300"
         inkscape:export-filename="/home/kraeki/work/bachelor/logo_v1.0.png"
         style="color:#000000;fill:#999999;fill-opacity:1;fill-rule:nonzero;stroke:#000000;stroke-width:0.77240682;stroke-linecap:butt;stroke-linejoin:miter;stroke-miterlimit:4;stroke-opacity:1;stroke-dasharray:none;stroke-dashoffset:0;marker:none;visibility:visible;display:inline;overflow:visible;enable-background:accumulate"
         d="m -20250.957,3858.8409 c 20.313,0 40.625,0 60.938,0 0,-20.3229 0,-40.6458 0,-60.9687 -20.313,0 -40.625,0 -60.938,0 0,20.3229 0,40.6458 0,60.9687 z"
         id="path8991"
         inkscape:connector-curvature="0" />
      <path
         inkscape:export-ydpi="300"
         inkscape:export-xdpi="300"
         inkscape:export-filename="/home/kraeki/work/bachelor/logo_v1.0.png"
         style="color:#000000;fill:#999999;fill-opacity:1;fill-rule:nonzero;stroke:#000000;stroke-width:0.77240682;stroke-linecap:butt;stroke-linejoin:miter;stroke-miterlimit:4;stroke-opacity:1;stroke-dasharray:none;stroke-dashoffset:0;marker:none;visibility:visible;display:inline;overflow:visible;enable-background:accumulate"
         d="m -20319.925,3858.8409 c 20.323,0 40.646,10e-5 60.968,0 0,-20.3229 0,-40.6458 0,-60.9687 -20.322,0 -40.645,0 -60.968,0 0,20.3229 0,40.6458 0,60.9687 z"
         id="path8993"
         inkscape:connector-curvature="0" />
      <path
         inkscape:export-ydpi="300"
         inkscape:export-xdpi="300"
         inkscape:export-filename="/home/kraeki/work/bachelor/logo_v1.0.png"
         style="color:#000000;fill:#999999;fill-opacity:1;fill-rule:nonzero;stroke:#000000;stroke-width:0.77240682;stroke-linecap:butt;stroke-linejoin:miter;stroke-miterlimit:4;stroke-opacity:1;stroke-dasharray:none;stroke-dashoffset:0;marker:none;visibility:visible;display:inline;overflow:visible;enable-background:accumulate"
         d="m -20388.863,3858.8409 c 20.313,0 40.625,0 60.938,0 0,-20.3229 0,-40.6458 0,-60.9687 -20.313,0 -40.625,0 -60.938,0 0,20.3229 0,40.6458 0,60.9687 z"
         id="path8995"
         inkscape:connector-curvature="0" />
      <path
         inkscape:export-ydpi="300"
         inkscape:export-xdpi="300"
         inkscape:export-filename="/home/kraeki/work/bachelor/logo_v1.0.png"
         style="color:#000000;fill:#999999;fill-opacity:1;fill-rule:nonzero;stroke:#000000;stroke-width:0.77240682;stroke-linecap:butt;stroke-linejoin:miter;stroke-miterlimit:4;stroke-opacity:1;stroke-dasharray:none;stroke-dashoffset:0;marker:none;visibility:visible;display:inline;overflow:visible;enable-background:accumulate"
         d="m -20388.863,3927.7785 c 20.313,0 40.625,0 60.938,0 0,-20.3126 0,-40.6251 0,-60.9376 -20.313,0 -40.625,10e-5 -60.938,0 0,20.3125 0,40.6251 0,60.9376 z"
         id="path8997"
         inkscape:connector-curvature="0" />
      <path
         inkscape:export-ydpi="300"
         inkscape:export-xdpi="300"
         inkscape:export-filename="/home/kraeki/work/bachelor/logo_v1.0.png"
         style="color:#000000;fill:#999999;fill-opacity:1;fill-rule:nonzero;stroke:#000000;stroke-width:0.77240682;stroke-linecap:butt;stroke-linejoin:miter;stroke-miterlimit:4;stroke-opacity:1;stroke-dasharray:none;stroke-dashoffset:0;marker:none;visibility:visible;display:inline;overflow:visible;enable-background:accumulate"
         d="m -20370.519,3948.5285 c 14.311,14.0699 28.331,28.43 42.562,42.5937 0,-18.4271 0,-36.8542 0,-55.2813 -18.427,0 -36.854,10e-5 -55.281,0 4.24,4.2292 8.479,8.4584 12.719,12.6876 z"
         id="path8999"
         inkscape:connector-curvature="0" />
      <path
         inkscape:export-ydpi="300"
         inkscape:export-xdpi="300"
         inkscape:export-filename="/home/kraeki/work/bachelor/logo_v1.0.png"
         style="color:#000000;fill:#999999;fill-opacity:1;fill-rule:nonzero;stroke:#000000;stroke-width:0.77240682;stroke-linecap:butt;stroke-linejoin:miter;stroke-miterlimit:4;stroke-opacity:1;stroke-dasharray:none;stroke-dashoffset:0;marker:none;visibility:visible;display:inline;overflow:visible;enable-background:accumulate"
         d="m -20250.957,3996.7472 c 20.313,0 40.625,0 60.938,0 0,-20.3229 0,-40.6458 0,-60.9687 -20.313,-10e-5 -40.625,0 -60.938,0 0,20.3229 0,40.6458 0,60.9687 z"
         id="path9001"
         inkscape:connector-curvature="0" />
      <path
         inkscape:export-ydpi="300"
         inkscape:export-xdpi="300"
         inkscape:export-filename="/home/kraeki/work/bachelor/logo_v1.0.png"
         style="color:#000000;fill:#ffd42a;fill-opacity:1;fill-rule:nonzero;stroke:#000000;stroke-width:0.77240682;stroke-linecap:butt;stroke-linejoin:miter;stroke-miterlimit:4;stroke-opacity:1;stroke-dasharray:none;stroke-dashoffset:0;marker:none;visibility:visible;display:inline;overflow:visible;enable-background:accumulate"
         d="m -20464.55,4147.0285 c 14.375,14.375 28.75,28.75 43.125,43.125 14.375,-14.375 28.75,-28.7501 43.125,-43.125 -14.375,-14.3855 -28.75,-28.7709 -43.125,-43.1563 -14.375,14.3854 -28.75,28.7708 -43.125,43.1563 z"
         id="path9003"
         inkscape:connector-curvature="0" />
      <path
         inkscape:export-ydpi="300"
         inkscape:export-xdpi="300"
         inkscape:export-filename="/home/kraeki/work/bachelor/logo_v1.0.png"
         style="color:#000000;fill:#ffd42a;fill-opacity:1;fill-rule:nonzero;stroke:#000000;stroke-width:0.77240682;stroke-linecap:butt;stroke-linejoin:miter;stroke-miterlimit:4;stroke-opacity:1;stroke-dasharray:none;stroke-dashoffset:0;marker:none;visibility:visible;display:inline;overflow:visible;enable-background:accumulate"
         d="m -20513.3,4098.2785 c 14.364,14.3645 28.729,28.7291 43.093,43.0937 14.386,-14.375 28.771,-28.75 43.157,-43.125 -14.375,-14.3646 -28.75,-28.7292 -43.125,-43.0937 -14.375,14.375 -28.75,28.75 -43.125,43.125 z"
         id="path9005"
         inkscape:connector-curvature="0" />
      <path
         inkscape:export-ydpi="300"
         inkscape:export-xdpi="300"
         inkscape:export-filename="/home/kraeki/work/bachelor/logo_v1.0.png"
         style="color:#000000;fill:#ffd42a;fill-opacity:1;fill-rule:nonzero;stroke:#000000;stroke-width:0.77240682;stroke-linecap:butt;stroke-linejoin:miter;stroke-miterlimit:4;stroke-opacity:1;stroke-dasharray:none;stroke-dashoffset:0;marker:none;visibility:visible;display:inline;overflow:visible;enable-background:accumulate"
         d="m -20415.769,4098.2472 c 14.375,14.375 28.75,28.75 43.125,43.125 14.365,-14.3646 28.729,-28.7292 43.094,-43.0937 -14.375,-14.375 -28.75,-28.7501 -43.125,-43.125 -14.365,14.3645 -28.729,28.7291 -43.094,43.0937 z"
         id="path9007"
         inkscape:connector-curvature="0" />
      <path
         inkscape:export-ydpi="300"
         inkscape:export-xdpi="300"
         inkscape:export-filename="/home/kraeki/work/bachelor/logo_v1.0.png"
         style="color:#000000;fill:#ffd42a;fill-opacity:1;fill-rule:nonzero;stroke:#000000;stroke-width:0.77240682;stroke-linecap:butt;stroke-linejoin:miter;stroke-miterlimit:4;stroke-opacity:1;stroke-dasharray:none;stroke-dashoffset:0;marker:none;visibility:visible;display:inline;overflow:visible;enable-background:accumulate"
         d="m -20367.05,4049.4972 c 14.375,14.375 28.75,28.75 43.125,43.125 14.385,-14.375 28.771,-28.75 43.156,-43.125 -14.385,-14.375 -28.771,-28.75 -43.156,-43.125 -14.375,14.375 -28.75,28.75 -43.125,43.125 z"
         id="path9009"
         inkscape:connector-curvature="0" />
      <path
         inkscape:export-ydpi="300"
         inkscape:export-xdpi="300"
         inkscape:export-filename="/home/kraeki/work/bachelor/logo_v1.0.png"
         style="color:#000000;fill:#ffd42a;fill-opacity:1;fill-rule:nonzero;stroke:#000000;stroke-width:0.77240682;stroke-linecap:butt;stroke-linejoin:miter;stroke-miterlimit:4;stroke-opacity:1;stroke-dasharray:none;stroke-dashoffset:0;marker:none;visibility:visible;display:inline;overflow:visible;enable-background:accumulate"
         d="m -20513.3,4000.7472 c 14.375,14.375 28.75,28.75 43.125,43.125 14.375,-14.375 28.75,-28.75 43.125,-43.125 -14.386,-14.375 -28.771,-28.75 -43.157,-43.125 -14.364,14.375 -28.729,28.75 -43.093,43.125 z"
         id="path9011"
         inkscape:connector-curvature="0" />
      <path
         inkscape:export-ydpi="300"
         inkscape:export-xdpi="300"
         inkscape:export-filename="/home/kraeki/work/bachelor/logo_v1.0.png"
         style="color:#000000;fill:#ffd42a;fill-opacity:1;fill-rule:nonzero;stroke:#000000;stroke-width:0.77240682;stroke-linecap:butt;stroke-linejoin:miter;stroke-miterlimit:4;stroke-opacity:1;stroke-dasharray:none;stroke-dashoffset:0;marker:none;visibility:visible;display:inline;overflow:visible;enable-background:accumulate"
         d="m -20562.05,4049.4972 c 14.375,14.375 28.75,28.75 43.125,43.125 14.375,-14.375 28.75,-28.75 43.125,-43.125 -14.375,-14.375 -28.75,-28.75 -43.125,-43.125 -14.375,14.375 -28.75,28.75 -43.125,43.125 z"
         id="path9013"
         inkscape:connector-curvature="0" />
      <path
         inkscape:export-ydpi="300"
         inkscape:export-xdpi="300"
         inkscape:export-filename="/home/kraeki/work/bachelor/logo_v1.0.png"
         style="color:#000000;fill:#666666;fill-opacity:1;fill-rule:nonzero;stroke:#000000;stroke-width:0.77240682;stroke-linecap:butt;stroke-linejoin:miter;stroke-miterlimit:4;stroke-opacity:1;stroke-dasharray:none;stroke-dashoffset:0;marker:none;visibility:visible;display:inline;overflow:visible;enable-background:accumulate"
         d="m -19935.443,4054.2472 c 20.313,0 40.625,0 60.938,0 0,-20.3125 0,-40.625 0,-60.9375 -20.313,0 -40.625,0 -60.938,0 0,20.3125 0,40.625 0,60.9375 z"
         id="path9015"
         inkscape:connector-curvature="0" />
      <path
         inkscape:export-ydpi="300"
         inkscape:export-xdpi="300"
         inkscape:export-filename="/home/kraeki/work/bachelor/logo_v1.0.png"
         style="color:#000000;fill:#666666;fill-opacity:1;fill-rule:nonzero;stroke:#000000;stroke-width:0.77240682;stroke-linecap:butt;stroke-linejoin:miter;stroke-miterlimit:4;stroke-opacity:1;stroke-dasharray:none;stroke-dashoffset:0;marker:none;visibility:visible;display:inline;overflow:visible;enable-background:accumulate"
         d="m -19935.443,3985.3097 c 20.313,0 40.625,0 60.938,0 0,-20.3229 0,-40.6458 0,-60.9688 -20.313,10e-5 -40.625,0 -60.938,0 0,20.323 0,40.6459 0,60.9688 z"
         id="path9017"
         inkscape:connector-curvature="0" />
      <path
         inkscape:export-ydpi="300"
         inkscape:export-xdpi="300"
         inkscape:export-filename="/home/kraeki/work/bachelor/logo_v1.0.png"
         style="color:#000000;fill:#666666;fill-opacity:1;fill-rule:nonzero;stroke:#000000;stroke-width:0.77240682;stroke-linecap:butt;stroke-linejoin:miter;stroke-miterlimit:4;stroke-opacity:1;stroke-dasharray:none;stroke-dashoffset:0;marker:none;visibility:visible;display:inline;overflow:visible;enable-background:accumulate"
         d="m -19935.443,4123.2159 c 20.313,0 40.625,1e-4 60.938,0 0,-20.3229 0,-40.6458 0,-60.9687 -20.313,0 -40.625,0 -60.938,0 0,20.3229 0,40.6458 0,60.9687 z"
         id="path9019"
         inkscape:connector-curvature="0" />
      <path
         inkscape:export-ydpi="300"
         inkscape:export-xdpi="300"
         inkscape:export-filename="/home/kraeki/work/bachelor/logo_v1.0.png"
         style="color:#000000;fill:#666666;fill-opacity:1;fill-rule:nonzero;stroke:#000000;stroke-width:0.77240682;stroke-linecap:butt;stroke-linejoin:miter;stroke-miterlimit:4;stroke-opacity:1;stroke-dasharray:none;stroke-dashoffset:0;marker:none;visibility:visible;display:inline;overflow:visible;enable-background:accumulate"
         d="m -19797.537,4192.1535 c 20.323,0 40.646,0 60.969,0 0,-20.3126 0,-40.625 0,-60.9376 -20.323,1e-4 -40.646,0 -60.969,0 0,20.3126 0,40.6251 0,60.9376 z"
         id="path9021"
         inkscape:connector-curvature="0" />
      <path
         inkscape:export-ydpi="300"
         inkscape:export-xdpi="300"
         inkscape:export-filename="/home/kraeki/work/bachelor/logo_v1.0.png"
         style="color:#000000;fill:#666666;fill-opacity:1;fill-rule:nonzero;stroke:#000000;stroke-width:0.77240682;stroke-linecap:butt;stroke-linejoin:miter;stroke-miterlimit:4;stroke-opacity:1;stroke-dasharray:none;stroke-dashoffset:0;marker:none;visibility:visible;display:inline;overflow:visible;enable-background:accumulate"
         d="m -19935.443,4192.1535 c 20.313,-1e-4 40.625,0 60.938,0 0,-20.3126 0,-40.625 0,-60.9376 -20.313,0 -40.625,1e-4 -60.938,0 0,20.3126 0,40.6251 0,60.9376 z"
         id="path9023"
         inkscape:connector-curvature="0" />
      <path
         inkscape:export-ydpi="300"
         inkscape:export-xdpi="300"
         inkscape:export-filename="/home/kraeki/work/bachelor/logo_v1.0.png"
         style="color:#000000;fill:#666666;fill-opacity:1;fill-rule:nonzero;stroke:#000000;stroke-width:0.77240682;stroke-linecap:butt;stroke-linejoin:miter;stroke-miterlimit:4;stroke-opacity:1;stroke-dasharray:none;stroke-dashoffset:0;marker:none;visibility:visible;display:inline;overflow:visible;enable-background:accumulate"
         d="m -19866.505,4192.1535 c 20.323,0 40.646,0 60.968,0 0,-20.3126 0,-40.625 0,-60.9376 -20.322,1e-4 -40.645,0 -60.968,0 0,20.3126 0,40.6251 0,60.9376 z"
         id="path9025"
         inkscape:connector-curvature="0" />
      <path
         inkscape:export-ydpi="300"
         inkscape:export-xdpi="300"
         inkscape:export-filename="/home/kraeki/work/bachelor/logo_v1.0.png"
         style="color:#000000;fill:#666666;fill-opacity:1;fill-rule:nonzero;stroke:#000000;stroke-width:0.77240682;stroke-linecap:butt;stroke-linejoin:miter;stroke-miterlimit:4;stroke-opacity:1;stroke-dasharray:none;stroke-dashoffset:0;marker:none;visibility:visible;display:inline;overflow:visible;enable-background:accumulate"
         d="m -19410.776,4054.2472 c 20.313,0 40.625,0 60.938,0 0,-20.3125 0,-40.625 0,-60.9375 -20.313,0 -40.625,0 -60.938,0 0,20.3125 0,40.625 0,60.9375 z"
         id="path9027"
         inkscape:connector-curvature="0" />
      <path
         inkscape:export-ydpi="300"
         inkscape:export-xdpi="300"
         inkscape:export-filename="/home/kraeki/work/bachelor/logo_v1.0.png"
         style="color:#000000;fill:#666666;fill-opacity:1;fill-rule:nonzero;stroke:#000000;stroke-width:0.77240682;stroke-linecap:butt;stroke-linejoin:miter;stroke-miterlimit:4;stroke-opacity:1;stroke-dasharray:none;stroke-dashoffset:0;marker:none;visibility:visible;display:inline;overflow:visible;enable-background:accumulate"
         d="m -19410.776,3985.3097 c 20.313,0 40.625,0 60.938,0 0,-20.3229 0,-40.6458 0,-60.9688 -20.313,10e-5 -40.625,0 -60.938,0 0,20.323 0,40.6459 0,60.9688 z"
         id="path9029"
         inkscape:connector-curvature="0" />
      <path
         inkscape:export-ydpi="300"
         inkscape:export-xdpi="300"
         inkscape:export-filename="/home/kraeki/work/bachelor/logo_v1.0.png"
         style="color:#000000;fill:#666666;fill-opacity:1;fill-rule:nonzero;stroke:#000000;stroke-width:0.77240682;stroke-linecap:butt;stroke-linejoin:miter;stroke-miterlimit:4;stroke-opacity:1;stroke-dasharray:none;stroke-dashoffset:0;marker:none;visibility:visible;display:inline;overflow:visible;enable-background:accumulate"
         d="m -19410.776,4123.2159 c 20.313,0 40.625,1e-4 60.938,0 0,-20.3229 0,-40.6458 0,-60.9687 -20.313,0 -40.625,0 -60.938,0 0,20.3229 0,40.6458 0,60.9687 z"
         id="path9031"
         inkscape:connector-curvature="0" />
      <path
         inkscape:export-ydpi="300"
         inkscape:export-xdpi="300"
         inkscape:export-filename="/home/kraeki/work/bachelor/logo_v1.0.png"
         style="color:#000000;fill:#666666;fill-opacity:1;fill-rule:nonzero;stroke:#000000;stroke-width:0.77240682;stroke-linecap:butt;stroke-linejoin:miter;stroke-miterlimit:4;stroke-opacity:1;stroke-dasharray:none;stroke-dashoffset:0;marker:none;visibility:visible;display:inline;overflow:visible;enable-background:accumulate"
         d="m -19410.776,4192.1535 c 20.313,-1e-4 40.625,0 60.938,0 0,-20.3126 0,-40.625 0,-60.9376 -20.313,0 -40.625,1e-4 -60.938,0 0,20.3126 0,40.6251 0,60.9376 z"
         id="path9033"
         inkscape:connector-curvature="0" />
      <path
         inkscape:export-ydpi="300"
         inkscape:export-xdpi="300"
         inkscape:export-filename="/home/kraeki/work/bachelor/logo_v1.0.png"
         style="color:#000000;fill:#666666;fill-opacity:1;fill-rule:nonzero;stroke:#000000;stroke-width:0.77240682;stroke-linecap:butt;stroke-linejoin:miter;stroke-miterlimit:4;stroke-opacity:1;stroke-dasharray:none;stroke-dashoffset:0;marker:none;visibility:visible;display:inline;overflow:visible;enable-background:accumulate"
         d="m -19341.838,4123.2159 c 20.323,1e-4 40.646,0 60.969,0 0,-20.3229 0,-40.6458 0,-60.9687 -20.323,0 -40.646,0 -60.969,0 0,20.3229 0,40.6458 0,60.9687 z"
         id="path9035"
         inkscape:connector-curvature="0" />
      <path
         inkscape:export-ydpi="300"
         inkscape:export-xdpi="300"
         inkscape:export-filename="/home/kraeki/work/bachelor/logo_v1.0.png"
         style="color:#000000;fill:#666666;fill-opacity:1;fill-rule:nonzero;stroke:#000000;stroke-width:0.77240682;stroke-linecap:butt;stroke-linejoin:miter;stroke-miterlimit:4;stroke-opacity:1;stroke-dasharray:none;stroke-dashoffset:0;marker:none;visibility:visible;display:inline;overflow:visible;enable-background:accumulate"
         d="m -19272.869,4054.2472 c 20.312,0 40.624,0 60.937,0 0,-20.3125 0,-40.625 0,-60.9375 -20.313,0 -40.625,0 -60.937,0 0,20.3125 0,40.625 0,60.9375 z"
         id="path9037"
         inkscape:connector-curvature="0" />
      <path
         inkscape:export-ydpi="300"
         inkscape:export-xdpi="300"
         inkscape:export-filename="/home/kraeki/work/bachelor/logo_v1.0.png"
         style="color:#000000;fill:#666666;fill-opacity:1;fill-rule:nonzero;stroke:#000000;stroke-width:0.77240682;stroke-linecap:butt;stroke-linejoin:miter;stroke-miterlimit:4;stroke-opacity:1;stroke-dasharray:none;stroke-dashoffset:0;marker:none;visibility:visible;display:inline;overflow:visible;enable-background:accumulate"
         d="m -19272.869,4192.1535 c 20.312,-1e-4 40.624,0 60.937,0 0,-20.3126 0,-40.625 0,-60.9376 -20.313,0 -40.625,1e-4 -60.937,0 0,20.3126 0,40.6251 0,60.9376 z"
         id="path9039"
         inkscape:connector-curvature="0" />
      <path
         inkscape:export-ydpi="300"
         inkscape:export-xdpi="300"
         inkscape:export-filename="/home/kraeki/work/bachelor/logo_v1.0.png"
         style="color:#000000;fill:#666666;fill-opacity:1;fill-rule:nonzero;stroke:#000000;stroke-width:0.77240682;stroke-linecap:butt;stroke-linejoin:miter;stroke-miterlimit:4;stroke-opacity:1;stroke-dasharray:none;stroke-dashoffset:0;marker:none;visibility:visible;display:inline;overflow:visible;enable-background:accumulate"
         d="m -19169.432,4054.2472 c 20.313,0 40.625,0 60.937,0 0,-20.3125 0,-40.625 0,-60.9375 -20.312,0 -40.624,0 -60.937,0 0,20.3125 0,40.625 0,60.9375 z"
         id="path9041"
         inkscape:connector-curvature="0" />
      <path
         inkscape:export-ydpi="300"
         inkscape:export-xdpi="300"
         inkscape:export-filename="/home/kraeki/work/bachelor/logo_v1.0.png"
         style="color:#000000;fill:#666666;fill-opacity:1;fill-rule:nonzero;stroke:#000000;stroke-width:0.77240682;stroke-linecap:butt;stroke-linejoin:miter;stroke-miterlimit:4;stroke-opacity:1;stroke-dasharray:none;stroke-dashoffset:0;marker:none;visibility:visible;display:inline;overflow:visible;enable-background:accumulate"
         d="m -19169.432,3985.3097 c 20.313,0 40.625,0 60.937,0 0,-20.3229 0,-40.6458 0,-60.9688 -20.312,10e-5 -40.624,0 -60.937,0 0,20.323 0,40.6459 0,60.9688 z"
         id="path9043"
         inkscape:connector-curvature="0" />
      <path
         inkscape:export-ydpi="300"
         inkscape:export-xdpi="300"
         inkscape:export-filename="/home/kraeki/work/bachelor/logo_v1.0.png"
         style="color:#000000;fill:#666666;fill-opacity:1;fill-rule:nonzero;stroke:#000000;stroke-width:0.77240682;stroke-linecap:butt;stroke-linejoin:miter;stroke-miterlimit:4;stroke-opacity:1;stroke-dasharray:none;stroke-dashoffset:0;marker:none;visibility:visible;display:inline;overflow:visible;enable-background:accumulate"
         d="m -19169.432,4123.2159 c 20.313,0 40.625,1e-4 60.937,0 0,-20.3229 0,-40.6458 0,-60.9687 -20.312,0 -40.624,0 -60.937,0 0,20.3229 0,40.6458 0,60.9687 z"
         id="path9045"
         inkscape:connector-curvature="0" />
      <path
         inkscape:export-ydpi="300"
         inkscape:export-xdpi="300"
         inkscape:export-filename="/home/kraeki/work/bachelor/logo_v1.0.png"
         style="color:#000000;fill:#666666;fill-opacity:1;fill-rule:nonzero;stroke:#000000;stroke-width:0.77240682;stroke-linecap:butt;stroke-linejoin:miter;stroke-miterlimit:4;stroke-opacity:1;stroke-dasharray:none;stroke-dashoffset:0;marker:none;visibility:visible;display:inline;overflow:visible;enable-background:accumulate"
         d="m -19169.432,4192.1535 c 20.313,-1e-4 40.625,0 60.937,0 0,-20.3126 0,-40.625 0,-60.9376 -20.312,0 -40.624,1e-4 -60.937,0 0,20.3126 0,40.6251 0,60.9376 z"
         id="path9047"
         inkscape:connector-curvature="0" />
      <path
         inkscape:export-ydpi="300"
         inkscape:export-xdpi="300"
         inkscape:export-filename="/home/kraeki/work/bachelor/logo_v1.0.png"
         style="color:#000000;fill:#666666;fill-opacity:1;fill-rule:nonzero;stroke:#000000;stroke-width:0.77240682;stroke-linecap:butt;stroke-linejoin:miter;stroke-miterlimit:4;stroke-opacity:1;stroke-dasharray:none;stroke-dashoffset:0;marker:none;visibility:visible;display:inline;overflow:visible;enable-background:accumulate"
         d="m -19100.495,4123.2159 c 20.323,1e-4 40.646,0 60.969,0 0,-20.3229 0,-40.6458 0,-60.9687 -20.323,0 -40.646,0 -60.969,0 0,20.3229 0,40.6458 0,60.9687 z"
         id="path9049"
         inkscape:connector-curvature="0" />
      <path
         inkscape:export-ydpi="300"
         inkscape:export-xdpi="300"
         inkscape:export-filename="/home/kraeki/work/bachelor/logo_v1.0.png"
         style="color:#000000;fill:#666666;fill-opacity:1;fill-rule:nonzero;stroke:#000000;stroke-width:0.77240682;stroke-linecap:butt;stroke-linejoin:miter;stroke-miterlimit:4;stroke-opacity:1;stroke-dasharray:none;stroke-dashoffset:0;marker:none;visibility:visible;display:inline;overflow:visible;enable-background:accumulate"
         d="m -19031.526,4054.2472 c 20.313,0 40.625,0 60.938,0 0,-20.3125 0,-40.625 0,-60.9375 -20.313,0 -40.625,0 -60.938,0 0,20.3125 0,40.625 0,60.9375 z"
         id="path9051"
         inkscape:connector-curvature="0" />
      <path
         inkscape:export-ydpi="300"
         inkscape:export-xdpi="300"
         inkscape:export-filename="/home/kraeki/work/bachelor/logo_v1.0.png"
         style="color:#000000;fill:#666666;fill-opacity:1;fill-rule:nonzero;stroke:#000000;stroke-width:0.77240682;stroke-linecap:butt;stroke-linejoin:miter;stroke-miterlimit:4;stroke-opacity:1;stroke-dasharray:none;stroke-dashoffset:0;marker:none;visibility:visible;display:inline;overflow:visible;enable-background:accumulate"
         d="m -19031.526,4192.1535 c 20.313,-1e-4 40.625,0 60.938,0 0,-20.3126 0,-40.625 0,-60.9376 -20.313,0 -40.625,1e-4 -60.938,0 0,20.3126 0,40.6251 0,60.9376 z"
         id="path9053"
         inkscape:connector-curvature="0" />
      <path
         inkscape:export-ydpi="300"
         inkscape:export-xdpi="300"
         inkscape:export-filename="/home/kraeki/work/bachelor/logo_v1.0.png"
         style="color:#000000;fill:#666666;fill-opacity:1;fill-rule:nonzero;stroke:#000000;stroke-width:0.77240682;stroke-linecap:butt;stroke-linejoin:miter;stroke-miterlimit:4;stroke-opacity:1;stroke-dasharray:none;stroke-dashoffset:0;marker:none;visibility:visible;display:inline;overflow:visible;enable-background:accumulate"
         d="m -18928.119,3985.3097 c 20.322,0 40.645,0 60.968,0 0,-20.3229 0,-40.6458 0,-60.9688 -20.323,0 -40.646,10e-5 -60.968,0 0,20.323 0,40.6459 0,60.9688 z"
         id="path9055"
         inkscape:connector-curvature="0" />
      <path
         inkscape:export-ydpi="300"
         inkscape:export-xdpi="300"
         inkscape:export-filename="/home/kraeki/work/bachelor/logo_v1.0.png"
         style="color:#000000;fill:#666666;fill-opacity:1;fill-rule:nonzero;stroke:#000000;stroke-width:0.77240682;stroke-linecap:butt;stroke-linejoin:miter;stroke-miterlimit:4;stroke-opacity:1;stroke-dasharray:none;stroke-dashoffset:0;marker:none;visibility:visible;display:inline;overflow:visible;enable-background:accumulate"
         d="m -18928.119,4123.2159 c 20.322,1e-4 40.645,0 60.968,0 0,-20.3229 0,-40.6458 0,-60.9687 -20.323,0 -40.646,0 -60.968,0 0,20.3229 0,40.6458 0,60.9687 z"
         id="path9057"
         inkscape:connector-curvature="0" />
      <path
         inkscape:export-ydpi="300"
         inkscape:export-xdpi="300"
         inkscape:export-filename="/home/kraeki/work/bachelor/logo_v1.0.png"
         style="color:#000000;fill:#666666;fill-opacity:1;fill-rule:nonzero;stroke:#000000;stroke-width:0.77240682;stroke-linecap:butt;stroke-linejoin:miter;stroke-miterlimit:4;stroke-opacity:1;stroke-dasharray:none;stroke-dashoffset:0;marker:none;visibility:visible;display:inline;overflow:visible;enable-background:accumulate"
         d="m -18928.119,4192.1535 c 20.322,0 40.645,0 60.968,0 0,-20.3126 0,-40.625 0,-60.9376 -20.323,1e-4 -40.646,0 -60.968,0 0,20.3126 0,40.6251 0,60.9376 z"
         id="path9059"
         inkscape:connector-curvature="0" />
      <path
         inkscape:export-ydpi="300"
         inkscape:export-xdpi="300"
         inkscape:export-filename="/home/kraeki/work/bachelor/logo_v1.0.png"
         style="color:#000000;fill:#666666;fill-opacity:1;fill-rule:nonzero;stroke:#000000;stroke-width:0.77240682;stroke-linecap:butt;stroke-linejoin:miter;stroke-miterlimit:4;stroke-opacity:1;stroke-dasharray:none;stroke-dashoffset:0;marker:none;visibility:visible;display:inline;overflow:visible;enable-background:accumulate"
         d="m -18755.713,4054.2472 c 20.312,0 40.625,0 60.937,0 0,-20.3125 0,-40.625 0,-60.9375 -20.312,0 -40.625,0 -60.937,0 0,20.3125 0,40.625 0,60.9375 z"
         id="path9061"
         inkscape:connector-curvature="0" />
      <path
         inkscape:export-ydpi="300"
         inkscape:export-xdpi="300"
         inkscape:export-filename="/home/kraeki/work/bachelor/logo_v1.0.png"
         style="color:#000000;fill:#666666;fill-opacity:1;fill-rule:nonzero;stroke:#000000;stroke-width:0.77240682;stroke-linecap:butt;stroke-linejoin:miter;stroke-miterlimit:4;stroke-opacity:1;stroke-dasharray:none;stroke-dashoffset:0;marker:none;visibility:visible;display:inline;overflow:visible;enable-background:accumulate"
         d="m -18755.713,3985.3097 c 20.312,0 40.625,0 60.937,0 0,-20.3229 0,-40.6458 0,-60.9688 -20.312,10e-5 -40.625,0 -60.937,0 0,20.323 0,40.6459 0,60.9688 z"
         id="path9063"
         inkscape:connector-curvature="0" />
      <path
         inkscape:export-ydpi="300"
         inkscape:export-xdpi="300"
         inkscape:export-filename="/home/kraeki/work/bachelor/logo_v1.0.png"
         style="color:#000000;fill:#666666;fill-opacity:1;fill-rule:nonzero;stroke:#000000;stroke-width:0.77240682;stroke-linecap:butt;stroke-linejoin:miter;stroke-miterlimit:4;stroke-opacity:1;stroke-dasharray:none;stroke-dashoffset:0;marker:none;visibility:visible;display:inline;overflow:visible;enable-background:accumulate"
         d="m -18755.713,4123.2159 c 20.312,0 40.625,1e-4 60.937,0 0,-20.3229 0,-40.6458 0,-60.9687 -20.312,0 -40.625,0 -60.937,0 0,20.3229 0,40.6458 0,60.9687 z"
         id="path9065"
         inkscape:connector-curvature="0" />
      <path
         inkscape:export-ydpi="300"
         inkscape:export-xdpi="300"
         inkscape:export-filename="/home/kraeki/work/bachelor/logo_v1.0.png"
         style="color:#000000;fill:#666666;fill-opacity:1;fill-rule:nonzero;stroke:#000000;stroke-width:0.77240682;stroke-linecap:butt;stroke-linejoin:miter;stroke-miterlimit:4;stroke-opacity:1;stroke-dasharray:none;stroke-dashoffset:0;marker:none;visibility:visible;display:inline;overflow:visible;enable-background:accumulate"
         d="m -18755.713,4192.1535 c 20.312,-1e-4 40.625,0 60.937,0 0,-20.3126 0,-40.625 0,-60.9376 -20.312,0 -40.625,1e-4 -60.937,0 0,20.3126 0,40.6251 0,60.9376 z"
         id="path9067"
         inkscape:connector-curvature="0" />
      <path
         inkscape:export-ydpi="300"
         inkscape:export-xdpi="300"
         inkscape:export-filename="/home/kraeki/work/bachelor/logo_v1.0.png"
         style="color:#000000;fill:#666666;fill-opacity:1;fill-rule:nonzero;stroke:#000000;stroke-width:0.77240682;stroke-linecap:butt;stroke-linejoin:miter;stroke-miterlimit:4;stroke-opacity:1;stroke-dasharray:none;stroke-dashoffset:0;marker:none;visibility:visible;display:inline;overflow:visible;enable-background:accumulate"
         d="m -18686.776,4192.1535 c 20.323,0 40.646,0 60.969,0 0,-20.3126 0,-40.625 0,-60.9376 -20.323,1e-4 -40.646,0 -60.969,0 0,20.3126 0,40.6251 0,60.9376 z"
         id="path9069"
         inkscape:connector-curvature="0" />
      <path
         inkscape:export-ydpi="300"
         inkscape:export-xdpi="300"
         inkscape:export-filename="/home/kraeki/work/bachelor/logo_v1.0.png"
         style="color:#000000;fill:#666666;fill-opacity:1;fill-rule:nonzero;stroke:#000000;stroke-width:0.77240682;stroke-linecap:butt;stroke-linejoin:miter;stroke-miterlimit:4;stroke-opacity:1;stroke-dasharray:none;stroke-dashoffset:0;marker:none;visibility:visible;display:inline;overflow:visible;enable-background:accumulate"
         d="m -18686.776,4054.2472 c 20.323,0 40.646,0 60.969,0 0,-20.3125 0,-40.625 0,-60.9375 -20.323,0 -40.646,0 -60.969,0 0,20.3125 0,40.625 0,60.9375 z"
         id="path9071"
         inkscape:connector-curvature="0" />
      <path
         inkscape:export-ydpi="300"
         inkscape:export-xdpi="300"
         inkscape:export-filename="/home/kraeki/work/bachelor/logo_v1.0.png"
         style="color:#000000;fill:#666666;fill-opacity:1;fill-rule:nonzero;stroke:#000000;stroke-width:0.77240682;stroke-linecap:butt;stroke-linejoin:miter;stroke-miterlimit:4;stroke-opacity:1;stroke-dasharray:none;stroke-dashoffset:0;marker:none;visibility:visible;display:inline;overflow:visible;enable-background:accumulate"
         d="m -18824.682,4054.2472 c 20.323,0 40.646,0 60.969,0 0,-20.3125 0,-40.625 0,-60.9375 -20.323,0 -40.646,0 -60.969,0 0,20.3125 0,40.625 0,60.9375 z"
         id="path9073"
         inkscape:connector-curvature="0" />
      <path
         inkscape:export-ydpi="300"
         inkscape:export-xdpi="300"
         inkscape:export-filename="/home/kraeki/work/bachelor/logo_v1.0.png"
         style="color:#000000;fill:#ffd42a;fill-opacity:1;fill-rule:nonzero;stroke:#000000;stroke-width:0.77240682;stroke-linecap:butt;stroke-linejoin:miter;stroke-miterlimit:4;stroke-opacity:1;stroke-dasharray:none;stroke-dashoffset:0;marker:none;visibility:visible;display:inline;overflow:visible;enable-background:accumulate"
         d="m -20415.769,4000.7472 c 14.365,14.375 28.729,28.75 43.094,43.125 14.375,-14.375 28.75,-28.75 43.125,-43.125 -14.365,-14.375 -28.729,-28.75 -43.094,-43.125 -14.375,14.375 -28.75,28.75 -43.125,43.125 z"
         id="path9075"
         inkscape:connector-curvature="0" />
      <path
         inkscape:export-ydpi="300"
         inkscape:export-xdpi="300"
         inkscape:export-filename="/home/kraeki/work/bachelor/logo_v1.0.png"
         style="color:#000000;fill:#ffd42a;fill-opacity:1;fill-rule:nonzero;stroke:#000000;stroke-width:0.77240682;stroke-linecap:butt;stroke-linejoin:miter;stroke-miterlimit:4;stroke-opacity:1;stroke-dasharray:none;stroke-dashoffset:0;marker:none;visibility:visible;display:inline;overflow:visible;enable-background:accumulate"
         d="m -20464.55,3951.9972 c 14.375,14.375 28.75,28.75 43.125,43.125 14.375,-14.375 28.75,-28.75 43.125,-43.125 -14.375,-14.375 -28.75,-28.75 -43.125,-43.125 -14.375,14.375 -28.75,28.75 -43.125,43.125 z"
         id="path9077"
         inkscape:connector-curvature="0" />
    </g>
    <flowRoot
       xml:space="preserve"
       id="flowRoot9751"
       style="font-size:144px;font-style:normal;font-weight:normal;line-height:125%;letter-spacing:0px;word-spacing:0px;fill:#000000;fill-opacity:1;stroke:none;font-family:Sans"><flowRegion
         id="flowRegion9753"><rect
           id="rect9755"
           width="2329.8611"
           height="3577.7048"
           x="-14580.288"
           y="1052.0585" /></flowRegion><flowPara
         id="flowPara9757" /></flowRoot>    <flowRoot
       xml:space="preserve"
       id="flowRoot11533"
       style="font-size:144px;font-style:normal;font-weight:normal;line-height:125%;letter-spacing:0px;word-spacing:0px;fill:#000000;fill-opacity:1;stroke:none;font-family:Sans"><flowRegion
         id="flowRegion11535"><rect
           id="rect11537"
           width="785.62177"
           height="3511.8467"
           x="-20678.27"
           y="1019.6132" /></flowRegion><flowPara
         id="flowPara11539" /></flowRoot>  </g>
</svg>
