<?xml version="1.0" encoding="UTF-8" standalone="no"?>
<!-- Created with Inkscape (http://www.inkscape.org/) -->

<svg
   xmlns:dc="http://purl.org/dc/elements/1.1/"
   xmlns:cc="http://creativecommons.org/ns#"
   xmlns:rdf="http://www.w3.org/1999/02/22-rdf-syntax-ns#"
   xmlns:svg="http://www.w3.org/2000/svg"
   xmlns="http://www.w3.org/2000/svg"
   xmlns:sodipodi="http://sodipodi.sourceforge.net/DTD/sodipodi-0.dtd"
   xmlns:inkscape="http://www.inkscape.org/namespaces/inkscape"
   width="56.344936mm"
   height="75.800659mm"
   viewBox="0 0 199.64741 268.58501"
   id="svg4327"
   version="1.1"
   inkscape:version="0.91 r13725"
   sodipodi:docname="l.svg">
  <defs
     id="defs4329" />
  <sodipodi:namedview
     id="base"
     pagecolor="#ffffff"
     bordercolor="#666666"
     borderopacity="1.0"
     inkscape:pageopacity="0.0"
     inkscape:pageshadow="2"
     inkscape:zoom="0.35"
     inkscape:cx="111.9672"
     inkscape:cy="100.0067"
     inkscape:document-units="px"
     inkscape:current-layer="layer1"
     showgrid="false"
     fit-margin-top="0"
     fit-margin-left="0"
     fit-margin-right="0"
     fit-margin-bottom="0"
     inkscape:window-width="1600"
     inkscape:window-height="847"
     inkscape:window-x="-8"
     inkscape:window-y="-8"
     inkscape:window-maximized="1" />
  <metadata
     id="metadata4332">
    <rdf:RDF>
      <cc:Work
         rdf:about="">
        <dc:format>image/svg+xml</dc:format>
        <dc:type
           rdf:resource="http://purl.org/dc/dcmitype/StillImage" />
        <dc:title></dc:title>
      </cc:Work>
    </rdf:RDF>
  </metadata>
  <g
     inkscape:label="Ebene 1"
     inkscape:groupmode="layer"
     id="layer1"
     transform="translate(-263.0328,-363.78389)">
    <g
       transform="translate(20203.644,-3552.7891)"
       id="g8292"
       style="fill:#7f8282;fill-opacity:1">
      <path
         inkscape:export-ydpi="300"
         inkscape:export-xdpi="300"
         inkscape:export-filename="/home/kraeki/work/bachelor/logo_v1.0.png"
         style="color:#000000;display:inline;overflow:visible;visibility:visible;fill:#7f8282;fill-opacity:1;fill-rule:nonzero;stroke:#000000;stroke-width:0.77240682;stroke-linecap:butt;stroke-linejoin:miter;stroke-miterlimit:4;stroke-dasharray:none;stroke-dashoffset:0;stroke-opacity:1;marker:none;enable-background:accumulate"
         d="m -19940.225,4046.8655 c 20.313,0 40.625,0 60.938,0 0,-20.3125 0,-40.625 0,-60.9375 -20.313,0 -40.625,0 -60.938,0 0,20.3125 0,40.625 0,60.9375 z"
         id="path9015"
         inkscape:connector-curvature="0" />
      <path
         inkscape:export-ydpi="300"
         inkscape:export-xdpi="300"
         inkscape:export-filename="/home/kraeki/work/bachelor/logo_v1.0.png"
         style="color:#000000;display:inline;overflow:visible;visibility:visible;fill:#7f8282;fill-opacity:1;fill-rule:nonzero;stroke:#000000;stroke-width:0.77240682;stroke-linecap:butt;stroke-linejoin:miter;stroke-miterlimit:4;stroke-dasharray:none;stroke-dashoffset:0;stroke-opacity:1;marker:none;enable-background:accumulate"
         d="m -19940.225,3977.928 c 20.313,0 40.625,0 60.938,0 0,-20.3229 0,-40.6458 0,-60.9688 -20.313,1e-4 -40.625,0 -60.938,0 0,20.323 0,40.6459 0,60.9688 z"
         id="path9017"
         inkscape:connector-curvature="0" />
      <path
         inkscape:export-ydpi="300"
         inkscape:export-xdpi="300"
         inkscape:export-filename="/home/kraeki/work/bachelor/logo_v1.0.png"
         style="color:#000000;display:inline;overflow:visible;visibility:visible;fill:#7f8282;fill-opacity:1;fill-rule:nonzero;stroke:#000000;stroke-width:0.77240682;stroke-linecap:butt;stroke-linejoin:miter;stroke-miterlimit:4;stroke-dasharray:none;stroke-dashoffset:0;stroke-opacity:1;marker:none;enable-background:accumulate"
         d="m -19940.225,4115.8342 c 20.313,0 40.625,1e-4 60.938,0 0,-20.3229 0,-40.6458 0,-60.9687 -20.313,0 -40.625,0 -60.938,0 0,20.3229 0,40.6458 0,60.9687 z"
         id="path9019"
         inkscape:connector-curvature="0" />
      <path
         inkscape:export-ydpi="300"
         inkscape:export-xdpi="300"
         inkscape:export-filename="/home/kraeki/work/bachelor/logo_v1.0.png"
         style="color:#000000;display:inline;overflow:visible;visibility:visible;fill:#7f8282;fill-opacity:1;fill-rule:nonzero;stroke:#000000;stroke-width:0.77240682;stroke-linecap:butt;stroke-linejoin:miter;stroke-miterlimit:4;stroke-dasharray:none;stroke-dashoffset:0;stroke-opacity:1;marker:none;enable-background:accumulate"
         d="m -19802.319,4184.7718 c 20.323,0 40.646,0 60.969,0 0,-20.3126 0,-40.625 0,-60.9376 -20.323,1e-4 -40.646,0 -60.969,0 0,20.3126 0,40.6251 0,60.9376 z"
         id="path9021"
         inkscape:connector-curvature="0" />
      <path
         inkscape:export-ydpi="300"
         inkscape:export-xdpi="300"
         inkscape:export-filename="/home/kraeki/work/bachelor/logo_v1.0.png"
         style="color:#000000;display:inline;overflow:visible;visibility:visible;fill:#7f8282;fill-opacity:1;fill-rule:nonzero;stroke:#000000;stroke-width:0.77240682;stroke-linecap:butt;stroke-linejoin:miter;stroke-miterlimit:4;stroke-dasharray:none;stroke-dashoffset:0;stroke-opacity:1;marker:none;enable-background:accumulate"
         d="m -19940.225,4184.7718 c 20.313,-1e-4 40.625,0 60.938,0 0,-20.3126 0,-40.625 0,-60.9376 -20.313,0 -40.625,1e-4 -60.938,0 0,20.3126 0,40.6251 0,60.9376 z"
         id="path9023"
         inkscape:connector-curvature="0" />
      <path
         inkscape:export-ydpi="300"
         inkscape:export-xdpi="300"
         inkscape:export-filename="/home/kraeki/work/bachelor/logo_v1.0.png"
         style="color:#000000;display:inline;overflow:visible;visibility:visible;fill:#7f8282;fill-opacity:1;fill-rule:nonzero;stroke:#000000;stroke-width:0.77240682;stroke-linecap:butt;stroke-linejoin:miter;stroke-miterlimit:4;stroke-dasharray:none;stroke-dashoffset:0;stroke-opacity:1;marker:none;enable-background:accumulate"
         d="m -19871.287,4184.7718 c 20.323,0 40.646,0 60.968,0 0,-20.3126 0,-40.625 0,-60.9376 -20.322,1e-4 -40.645,0 -60.968,0 0,20.3126 0,40.6251 0,60.9376 z"
         id="path9025"
         inkscape:connector-curvature="0" />
    </g>
  </g>
</svg>
