<?xml version="1.0" encoding="UTF-8" standalone="no"?>
<!-- Created with Inkscape (http://www.inkscape.org/) -->

<svg
   xmlns:dc="http://purl.org/dc/elements/1.1/"
   xmlns:cc="http://creativecommons.org/ns#"
   xmlns:rdf="http://www.w3.org/1999/02/22-rdf-syntax-ns#"
   xmlns:svg="http://www.w3.org/2000/svg"
   xmlns="http://www.w3.org/2000/svg"
   xmlns:sodipodi="http://sodipodi.sourceforge.net/DTD/sodipodi-0.dtd"
   xmlns:inkscape="http://www.inkscape.org/namespaces/inkscape"
   width="369.82639mm"
   height="369.82639mm"
   viewBox="0 0 1310.4085 1310.4084"
   id="svg4488"
   version="1.1"
   inkscape:version="0.91 r13725"
   sodipodi:docname="lokkit_only_lokkit_squared.svg">
  <defs
     id="defs4490" />
  <sodipodi:namedview
     id="base"
     pagecolor="#ffffff"
     bordercolor="#666666"
     borderopacity="1.0"
     inkscape:pageopacity="0.0"
     inkscape:pageshadow="2"
     inkscape:zoom="0.35"
     inkscape:cx="424.4902"
     inkscape:cy="551.37564"
     inkscape:document-units="px"
     inkscape:current-layer="layer1"
     showgrid="false"
     fit-margin-top="0"
     fit-margin-left="0"
     fit-margin-right="0"
     fit-margin-bottom="0"
     inkscape:window-width="1600"
     inkscape:window-height="847"
     inkscape:window-x="-8"
     inkscape:window-y="-8"
     inkscape:window-maximized="1" />
  <metadata
     id="metadata4493">
    <rdf:RDF>
      <cc:Work
         rdf:about="">
        <dc:format>image/svg+xml</dc:format>
        <dc:type
           rdf:resource="http://purl.org/dc/dcmitype/StillImage" />
        <dc:title />
      </cc:Work>
    </rdf:RDF>
  </metadata>
  <g
     inkscape:label="Ebene 1"
     inkscape:groupmode="layer"
     id="layer1"
     transform="translate(49.490203,455.24207)">
    <g
       transform="translate(19891.121,-3917.1006)"
       id="g8292"
       style="fill:#7f8282;fill-opacity:1" />
    <g
       transform="translate(19891.121,-3917.1006)"
       id="g8300"
       style="fill:#7f8282;fill-opacity:1" />
    <g
       transform="translate(19891.121,-3917.1006)"
       id="g8309"
       style="fill:#7f8282;fill-opacity:1" />
    <g
       transform="translate(19891.121,-3917.1006)"
       id="g8318"
       style="fill:#7f8282;fill-opacity:1" />
    <g
       transform="translate(19891.121,-3917.1006)"
       id="g8323"
       style="fill:#7f8282;fill-opacity:1" />
    <path
       id="path8985"
       style="color:#000000;display:inline;overflow:visible;visibility:visible;fill:#f9bf02;fill-opacity:1;fill-rule:nonzero;stroke:#000000;stroke-width:0.77240682;stroke-linecap:butt;stroke-linejoin:miter;stroke-miterlimit:4;stroke-dashoffset:0;stroke-opacity:1;marker:none;enable-background:accumulate"
       d="m 294.81349,272.92117 c 0,93.7708 0,187.5416 0,281.3124 13.584,-13.5937 27.167,-27.1874 40.75,-40.7812 0,-93.7604 0,-187.5208 0,-281.2812 -13.583,13.5833 -27.166,27.1666 -40.75,40.75 z m -144.656,-147.9063 c 14.375,14.375 28.75,28.75 43.125,43.125 14.375,-14.375 28.75,-28.75 43.125,-43.125 -14.375,-14.375 -28.75,-28.75 -43.125,-43.12499 -14.375,14.37499 -28.75,28.74999 -43.125,43.12499 z m 48.75,-48.74999 c 14.375,14.37499 28.75,28.74999 43.125,43.12499 14.375,-14.375 28.75,-28.75 43.125,-43.12499 -14.375,-14.375 -28.75,-28.75 -43.125,-43.125 -14.375,14.375 -28.75,28.75 -43.125,43.125 z m 48.75,-48.75 c 14.375,14.375 28.75,28.75 43.125,43.125 14.375,-14.375 28.75,-28.75 43.125,-43.125 -14.375,-14.375 -28.75,-28.75 -43.125,-43.125 -14.375,14.375 -28.75,28.75 -43.125,43.125 z m 48.781,48.75 c 14.365,14.37499 28.729,28.74999 43.094,43.12499 14.375,-14.375 28.75,-28.75 43.125,-43.12499 -14.365,-14.375 -28.729,-28.75 -43.094,-43.125 -14.375,14.375 -28.75,28.75 -43.125,43.125 z m 48.75,48.74999 c 14.375,14.375 28.75,28.75 43.125,43.125 14.375,-14.375 28.75,-28.75 43.125,-43.125 -14.375,-14.375 -28.75,-28.75 -43.125,-43.12499 -14.375,14.37499 -28.75,28.74999 -43.125,43.12499 z m -48.75,48.75 c 14.375,14.375 28.75,28.75 43.125,43.125 14.365,-14.3646 28.729,-28.7292 43.094,-43.0937 -14.375,-14.375 -28.75,-28.7501 -43.125,-43.125 -14.365,14.3645 -28.729,28.7291 -43.094,43.0937 z m -97.531,0.0313 c 14.375,14.3645 28.75,28.7291 43.125,43.0937 14.375,-14.375 28.75,-28.75 43.125,-43.125 -14.375,-14.3646 -28.75,-28.7292 -43.125,-43.0937 -14.375,14.375 -28.75,28.7499 -43.125,43.125 z m 48.75,48.75 c 14.375,14.375 28.75,28.75 43.125,43.125 14.375,-14.375 28.75,-28.7501 43.125,-43.125 -14.375,-14.3751 -28.75,-28.75 -43.125,-43.125 -14.375,14.375 -28.75,28.75 -43.125,43.125 z M 1061.657,129.7649 c 20.323,0 40.646,0 60.969,0 0,-20.3125 0,-40.625 0,-60.9375 -20.323,0 -40.646,0 -60.969,0 0,20.3125 0,40.625 0,60.9375 z m 137.906,0 c 20.323,0 40.646,0 60.969,0 0,-20.3125 0,-40.625 0,-60.9375 -20.323,0 -40.646,0 -60.969,0 0,20.3125 0,40.625 0,60.9375 z m 0,137.9063 c 20.323,0 40.646,0 60.969,0 0,-20.3126 0,-40.625 0,-60.9376 -20.323,1e-4 -40.646,0 -60.969,0 0,20.3126 0,40.6251 0,60.9376 z m -68.937,0 c 20.312,-10e-5 40.625,0 60.937,0 0,-20.3126 0,-40.625 0,-60.9376 -20.312,0 -40.625,1e-4 -60.937,0 0,20.3126 0,40.6251 0,60.9376 z m 0,-68.9376 c 20.312,0 40.625,1e-4 60.937,0 0,-20.3229 0,-40.6458 0,-60.9687 -20.312,0 -40.625,0 -60.937,0 0,20.3229 0,40.6458 0,60.9687 z m 0,-137.9062 c 20.312,0 40.625,0 60.937,0 0,-20.3229 0,-40.6458 0,-60.9688 -20.312,10e-5 -40.625,0 -60.937,0 0,20.323 0,40.6459 0,60.9688 z m 0,68.9375 c 20.312,0 40.625,0 60.937,0 0,-20.3125 0,-40.625 0,-60.9375 -20.312,0 -40.625,0 -60.937,0 0,20.3125 0,40.625 0,60.9375 z M 958.22,267.6712 c 20.322,0 40.645,0 60.968,0 0,-20.3126 0,-40.625 0,-60.9376 -20.323,1e-4 -40.646,0 -60.968,0 0,20.3126 0,40.6251 0,60.9376 z m 0,-68.9376 c 20.322,1e-4 40.645,0 60.968,0 0,-20.3229 0,-40.6458 0,-60.9687 -20.323,0 -40.646,0 -60.968,0 0,20.3229 0,40.6458 0,60.9687 z m 0,-137.9062 c 20.322,0 40.645,0 60.968,0 0,-20.3229 0,-40.6458 0,-60.9688 -20.323,0 -40.646,10e-5 -60.968,0 0,20.323 0,40.6459 0,60.9688 z M 854.813,267.6712 c 20.313,-10e-5 40.625,0 60.938,0 0,-20.3126 0,-40.625 0,-60.9376 -20.313,0 -40.625,1e-4 -60.938,0 0,20.3126 0,40.6251 0,60.9376 z m 0,-137.9063 c 20.313,0 40.625,0 60.938,0 0,-20.3125 0,-40.625 0,-60.9375 -20.313,0 -40.625,0 -60.938,0 0,20.3125 0,40.625 0,60.9375 z m -68.969,68.9687 c 20.323,1e-4 40.646,0 60.969,0 0,-20.3229 0,-40.6458 0,-60.9687 -20.323,0 -40.646,0 -60.969,0 0,20.3229 0,40.6458 0,60.9687 z m -68.937,68.9376 c 20.313,-10e-5 40.625,0 60.937,0 0,-20.3126 0,-40.625 0,-60.9376 -20.312,0 -40.624,1e-4 -60.937,0 0,20.3126 0,40.6251 0,60.9376 z m 0,-68.9376 c 20.313,0 40.625,1e-4 60.937,0 0,-20.3229 0,-40.6458 0,-60.9687 -20.312,0 -40.624,0 -60.937,0 0,20.3229 0,40.6458 0,60.9687 z m 0,-137.9062 c 20.313,0 40.625,0 60.937,0 0,-20.3229 0,-40.6458 0,-60.9688 -20.312,10e-5 -40.624,0 -60.937,0 0,20.323 0,40.6459 0,60.9688 z m 0,68.9375 c 20.313,0 40.625,0 60.937,0 0,-20.3125 0,-40.625 0,-60.9375 -20.312,0 -40.624,0 -60.937,0 0,20.3125 0,40.625 0,60.9375 z M 613.47,267.6712 c 20.312,-10e-5 40.624,0 60.937,0 0,-20.3126 0,-40.625 0,-60.9376 -20.313,0 -40.625,1e-4 -60.937,0 0,20.3126 0,40.6251 0,60.9376 z m 0,-137.9063 c 20.312,0 40.624,0 60.937,0 0,-20.3125 0,-40.625 0,-60.9375 -20.313,0 -40.625,0 -60.937,0 0,20.3125 0,40.625 0,60.9375 z m -68.969,68.9687 c 20.323,1e-4 40.646,0 60.969,0 0,-20.3229 0,-40.6458 0,-60.9687 -20.323,0 -40.646,0 -60.969,0 0,20.3229 0,40.6458 0,60.9687 z m -68.938,68.9376 c 20.313,-10e-5 40.625,0 60.938,0 0,-20.3126 0,-40.625 0,-60.9376 -20.313,0 -40.625,1e-4 -60.938,0 0,20.3126 0,40.6251 0,60.9376 z m 0,-68.9376 c 20.313,0 40.625,1e-4 60.938,0 0,-20.3229 0,-40.6458 0,-60.9687 -20.313,0 -40.625,0 -60.938,0 0,20.3229 0,40.6458 0,60.9687 z m 0,-137.9062 c 20.313,0 40.625,0 60.938,0 0,-20.3229 0,-40.6458 0,-60.9688 -20.313,10e-5 -40.625,0 -60.938,0 0,20.323 0,40.6459 0,60.9688 z m 0,68.9375 c 20.313,0 40.625,0 60.938,0 0,-20.3125 0,-40.625 0,-60.9375 -20.313,0 -40.625,0 -60.938,0 0,20.3125 0,40.625 0,60.9375 z M 19.834,267.6712 c 20.323,0 40.646,0 60.968,0 0,-20.3126 0,-40.625 0,-60.9376 -20.322,1e-4 -40.645,0 -60.968,0 0,20.3126 0,40.6251 0,60.9376 z m -68.938,0 c 20.313,-10e-5 40.625,0 60.938,0 0,-20.3126 0,-40.625 0,-60.9376 -20.313,0 -40.625,1e-4 -60.938,0 0,20.3126 0,40.6251 0,60.9376 z m 137.906,0 c 20.323,0 40.646,0 60.969,0 0,-20.3126 0,-40.625 0,-60.9376 -20.323,1e-4 -40.646,0 -60.969,0 0,20.3126 0,40.6251 0,60.9376 z M -49.104,198.7336 c 20.313,0 40.625,1e-4 60.938,0 0,-20.3229 0,-40.6458 0,-60.9687 -20.313,0 -40.625,0 -60.938,0 0,20.3229 0,40.6458 0,60.9687 z m 0,-137.9062 c 20.313,0 40.625,0 60.938,0 0,-20.3229 0,-40.6458 0,-60.9688 -20.313,10e-5 -40.625,0 -60.938,0 0,20.323 0,40.6459 0,60.9688 z m 0,68.9375 c 20.313,0 40.625,0 60.938,0 0,-20.3125 0,-40.625 0,-60.9375 -20.313,0 -40.625,0 -60.938,0 0,20.3125 0,40.625 0,60.9375 z m 295.13649,188.68747 c 13.594,13.5729 27.187,27.1458 40.781,40.7188 0,-28.75 0,-57.5001 0,-86.25 -13.594,-13.5834 -27.187,-27.1667 -40.781,-40.75 0,28.7604 0,57.5208 0,86.2812 z m 1.625,99.0938 c 13.052,13.052 26.104,26.1041 39.156,39.1562 0,-26.0938 0,-52.1875 0,-78.2812 -13.052,13.0416 -26.104,26.0833 -39.156,39.125 z m 0,97.5312 c 13.052,13.0521 26.104,26.1042 39.156,39.1562 0,-26.0937 0,-52.1874 0,-78.2812 -13.052,13.0417 -26.104,26.0833 -39.156,39.125 z" />
  </g>
</svg>
