<?xml version="1.0" encoding="UTF-8" standalone="no"?>
<!-- Created with Inkscape (http://www.inkscape.org/) -->

<svg
   xmlns:dc="http://purl.org/dc/elements/1.1/"
   xmlns:cc="http://creativecommons.org/ns#"
   xmlns:rdf="http://www.w3.org/1999/02/22-rdf-syntax-ns#"
   xmlns:svg="http://www.w3.org/2000/svg"
   xmlns="http://www.w3.org/2000/svg"
   xmlns:sodipodi="http://sodipodi.sourceforge.net/DTD/sodipodi-0.dtd"
   xmlns:inkscape="http://www.inkscape.org/namespaces/inkscape"
   width="79.692032mm"
   height="161.23996mm"
   viewBox="0 0 282.37334 571.32269"
   id="svg4371"
   version="1.1"
   inkscape:version="0.91 r13725"
   sodipodi:docname="o.svg">
  <defs
     id="defs4373" />
  <sodipodi:namedview
     id="base"
     pagecolor="#ffffff"
     bordercolor="#666666"
     borderopacity="1.0"
     inkscape:pageopacity="0.0"
     inkscape:pageshadow="2"
     inkscape:zoom="0.35"
     inkscape:cx="236.18667"
     inkscape:cy="471.37564"
     inkscape:document-units="px"
     inkscape:current-layer="layer1"
     showgrid="false"
     fit-margin-top="0"
     fit-margin-left="0"
     fit-margin-right="0"
     fit-margin-bottom="0"
     inkscape:window-width="1600"
     inkscape:window-height="847"
     inkscape:window-x="-8"
     inkscape:window-y="-8"
     inkscape:window-maximized="1" />
  <metadata
     id="metadata4376">
    <rdf:RDF>
      <cc:Work
         rdf:about="">
        <dc:format>image/svg+xml</dc:format>
        <dc:type
           rdf:resource="http://purl.org/dc/dcmitype/StillImage" />
        <dc:title></dc:title>
      </cc:Work>
    </rdf:RDF>
  </metadata>
  <g
     inkscape:label="Ebene 1"
     inkscape:groupmode="layer"
     id="layer1"
     transform="translate(-138.81333,-432.41514)">
    <path
       inkscape:export-ydpi="300"
       inkscape:export-xdpi="300"
       inkscape:export-filename="/home/kraeki/work/bachelor/logo_v1.0.png"
       style="color:#000000;display:inline;overflow:visible;visibility:visible;fill:#d4aa00;fill-opacity:1;fill-rule:nonzero;stroke:#000000;stroke-width:0.77240682;stroke-linecap:butt;stroke-linejoin:miter;stroke-miterlimit:4;stroke-dashoffset:0;stroke-opacity:1;marker:none;enable-background:accumulate"
       d="m 235.2345,767.0238 c 13.594,13.5729 27.187,27.1458 40.781,40.7188 0,-28.75 0,-57.5001 0,-86.25 -13.594,-13.5834 -27.187,-27.1667 -40.781,-40.75 0,28.7604 0,57.5208 0,86.2812 z m 1.625,99.0938 c 13.052,13.052 26.104,26.1041 39.156,39.1562 0,-26.0938 0,-52.1875 0,-78.2812 -13.052,13.0416 -26.104,26.0833 -39.156,39.125 z m 0,97.5312 c 13.052,13.0521 26.104,26.1042 39.156,39.1562 0,-26.0937 0,-52.1874 0,-78.2812 -13.052,13.0417 -26.104,26.0833 -39.156,39.125 z"
       id="path8987"
       inkscape:connector-curvature="0" />
    <path
       inkscape:connector-curvature="0"
       id="path8969"
       d="m 236.8595,671.1176 c 14.375,14.375 28.75,28.75 43.125,43.125 14.375,-14.375 28.75,-28.7501 43.125,-43.125 -14.375,-14.3751 -28.75,-28.75 -43.125,-43.125 -14.375,14.375 -28.75,28.75 -43.125,43.125 z"
       style="color:#000000;display:inline;overflow:visible;visibility:visible;fill:#f9bf02;fill-opacity:1;fill-rule:nonzero;stroke:#000000;stroke-width:0.77240682;stroke-linecap:butt;stroke-linejoin:miter;stroke-miterlimit:4;stroke-dasharray:none;stroke-dashoffset:0;stroke-opacity:1;marker:none;enable-background:accumulate"
       inkscape:export-filename="/home/kraeki/work/bachelor/logo_v1.0.png"
       inkscape:export-xdpi="300"
       inkscape:export-ydpi="300" />
    <path
       inkscape:connector-curvature="0"
       id="path8971"
       d="m 188.1095,622.3676 c 14.375,14.3645 28.75,28.7291 43.125,43.0937 14.375,-14.375 28.75,-28.75 43.125,-43.125 -14.375,-14.3646 -28.75,-28.7292 -43.125,-43.0937 -14.375,14.375 -28.75,28.7499 -43.125,43.125 z"
       style="color:#000000;display:inline;overflow:visible;visibility:visible;fill:#f9bf02;fill-opacity:1;fill-rule:nonzero;stroke:#000000;stroke-width:0.77240682;stroke-linecap:butt;stroke-linejoin:miter;stroke-miterlimit:4;stroke-dasharray:none;stroke-dashoffset:0;stroke-opacity:1;marker:none;enable-background:accumulate"
       inkscape:export-filename="/home/kraeki/work/bachelor/logo_v1.0.png"
       inkscape:export-xdpi="300"
       inkscape:export-ydpi="300" />
    <path
       inkscape:connector-curvature="0"
       id="path8973"
       d="m 285.6405,622.3363 c 14.375,14.375 28.75,28.75 43.125,43.125 14.365,-14.3646 28.729,-28.7292 43.094,-43.0937 -14.375,-14.375 -28.75,-28.7501 -43.125,-43.125 -14.365,14.3645 -28.729,28.7291 -43.094,43.0937 z"
       style="color:#000000;display:inline;overflow:visible;visibility:visible;fill:#f9bf02;fill-opacity:1;fill-rule:nonzero;stroke:#000000;stroke-width:0.77240682;stroke-linecap:butt;stroke-linejoin:miter;stroke-miterlimit:4;stroke-dasharray:none;stroke-dashoffset:0;stroke-opacity:1;marker:none;enable-background:accumulate"
       inkscape:export-filename="/home/kraeki/work/bachelor/logo_v1.0.png"
       inkscape:export-xdpi="300"
       inkscape:export-ydpi="300" />
    <path
       inkscape:connector-curvature="0"
       id="path8975"
       d="m 334.3905,573.5863 c 14.375,14.375 28.75,28.75 43.125,43.125 14.375,-14.375 28.75,-28.75 43.125,-43.125 -14.375,-14.375 -28.75,-28.75 -43.125,-43.12499 -14.375,14.37499 -28.75,28.74999 -43.125,43.12499 z"
       style="color:#000000;display:inline;overflow:visible;visibility:visible;fill:#f9bf02;fill-opacity:1;fill-rule:nonzero;stroke:#000000;stroke-width:0.77240682;stroke-linecap:butt;stroke-linejoin:miter;stroke-miterlimit:4;stroke-dasharray:none;stroke-dashoffset:0;stroke-opacity:1;marker:none;enable-background:accumulate"
       inkscape:export-filename="/home/kraeki/work/bachelor/logo_v1.0.png"
       inkscape:export-xdpi="300"
       inkscape:export-ydpi="300" />
    <path
       inkscape:connector-curvature="0"
       id="path8977"
       d="m 285.6405,524.83631 c 14.365,14.37499 28.729,28.74999 43.094,43.12499 14.375,-14.375 28.75,-28.75 43.125,-43.12499 -14.365,-14.375 -28.729,-28.75 -43.094,-43.125 -14.375,14.375 -28.75,28.75 -43.125,43.125 z"
       style="color:#000000;display:inline;overflow:visible;visibility:visible;fill:#f9bf02;fill-opacity:1;fill-rule:nonzero;stroke:#000000;stroke-width:0.77240682;stroke-linecap:butt;stroke-linejoin:miter;stroke-miterlimit:4;stroke-dasharray:none;stroke-dashoffset:0;stroke-opacity:1;marker:none;enable-background:accumulate"
       inkscape:export-filename="/home/kraeki/work/bachelor/logo_v1.0.png"
       inkscape:export-xdpi="300"
       inkscape:export-ydpi="300" />
    <path
       inkscape:connector-curvature="0"
       id="path8979"
       d="m 236.8595,476.08631 c 14.375,14.375 28.75,28.75 43.125,43.125 14.375,-14.375 28.75,-28.75 43.125,-43.125 -14.375,-14.375 -28.75,-28.75 -43.125,-43.125 -14.375,14.375 -28.75,28.75 -43.125,43.125 z"
       style="color:#000000;display:inline;overflow:visible;visibility:visible;fill:#f9bf02;fill-opacity:1;fill-rule:nonzero;stroke:#000000;stroke-width:0.77240682;stroke-linecap:butt;stroke-linejoin:miter;stroke-miterlimit:4;stroke-dasharray:none;stroke-dashoffset:0;stroke-opacity:1;marker:none;enable-background:accumulate"
       inkscape:export-filename="/home/kraeki/work/bachelor/logo_v1.0.png"
       inkscape:export-xdpi="300"
       inkscape:export-ydpi="300" />
    <path
       inkscape:connector-curvature="0"
       id="path8981"
       d="m 188.1095,524.83631 c 14.375,14.37499 28.75,28.74999 43.125,43.12499 14.375,-14.375 28.75,-28.75 43.125,-43.12499 -14.375,-14.375 -28.75,-28.75 -43.125,-43.125 -14.375,14.375 -28.75,28.75 -43.125,43.125 z"
       style="color:#000000;display:inline;overflow:visible;visibility:visible;fill:#f9bf02;fill-opacity:1;fill-rule:nonzero;stroke:#000000;stroke-width:0.77240682;stroke-linecap:butt;stroke-linejoin:miter;stroke-miterlimit:4;stroke-dasharray:none;stroke-dashoffset:0;stroke-opacity:1;marker:none;enable-background:accumulate"
       inkscape:export-filename="/home/kraeki/work/bachelor/logo_v1.0.png"
       inkscape:export-xdpi="300"
       inkscape:export-ydpi="300" />
    <path
       inkscape:connector-curvature="0"
       id="path8983"
       d="m 139.3595,573.5863 c 14.375,14.375 28.75,28.75 43.125,43.125 14.375,-14.375 28.75,-28.75 43.125,-43.125 -14.375,-14.375 -28.75,-28.75 -43.125,-43.12499 -14.375,14.37499 -28.75,28.74999 -43.125,43.12499 z"
       style="color:#000000;display:inline;overflow:visible;visibility:visible;fill:#f9bf02;fill-opacity:1;fill-rule:nonzero;stroke:#000000;stroke-width:0.77240682;stroke-linecap:butt;stroke-linejoin:miter;stroke-miterlimit:4;stroke-dasharray:none;stroke-dashoffset:0;stroke-opacity:1;marker:none;enable-background:accumulate"
       inkscape:export-filename="/home/kraeki/work/bachelor/logo_v1.0.png"
       inkscape:export-xdpi="300"
       inkscape:export-ydpi="300" />
    <path
       inkscape:connector-curvature="0"
       id="path8985"
       d="m 284.0155,721.4926 c 0,93.7708 0,187.5416 0,281.3124 13.584,-13.5937 27.167,-27.1874 40.75,-40.7812 0,-93.7604 0,-187.5208 0,-281.2812 -13.583,13.5833 -27.166,27.1666 -40.75,40.75 z"
       style="color:#000000;display:inline;overflow:visible;visibility:visible;fill:#f9bf02;fill-opacity:1;fill-rule:nonzero;stroke:#000000;stroke-width:0.77240682;stroke-linecap:butt;stroke-linejoin:miter;stroke-miterlimit:4;stroke-dashoffset:0;stroke-opacity:1;marker:none;enable-background:accumulate"
       inkscape:export-filename="/home/kraeki/work/bachelor/logo_v1.0.png"
       inkscape:export-xdpi="300"
       inkscape:export-ydpi="300" />
  </g>
</svg>
